<svg width="49" height="27" viewBox="0 0 49 27" fill="none" xmlns="http://www.w3.org/2000/svg">
<g clip-path="url(#clip0_320_649)">
<path d="M24.447 0.0711074C24.7713 -0.0779891 25.1254 0.0464781 25.4226 0.240964C25.6302 0.41837 25.8378 0.597663 26.0703 0.713732C26.0881 0.758084 26.1251 0.845843 26.1429 0.889251C26.1336 0.918504 26.1158 0.978898 26.1066 1.00815C26.2723 1.50828 26.3782 2.1009 26.2175 2.62641C26.108 2.80382 25.9175 2.83128 25.7632 2.89998C25.7625 3.15382 25.793 3.40492 25.8094 3.65688C26.1393 3.72765 26.4186 3.42285 26.745 3.45305C26.7891 3.21053 26.8239 2.96405 26.8824 2.72635C26.9499 2.88394 26.9527 3.06521 26.9535 3.24262C27.0388 3.2747 27.1255 3.30395 27.2129 3.33217C27.2137 3.37567 27.2143 3.46249 27.2143 3.5059C28.645 3.51722 30.0748 3.49731 31.5055 3.51628C31.502 3.5812 31.495 3.71152 31.4922 3.77672C31.5291 3.77672 31.6045 3.77767 31.642 3.77767C31.6406 3.43238 31.642 3.08597 31.6413 2.74069C31.6776 2.73871 31.7487 2.73588 31.7843 2.73493C31.7851 3.0067 31.7857 3.27848 31.7879 3.55034C31.8191 3.6013 31.8817 3.70312 31.9131 3.75407C31.9366 3.71718 31.9834 3.64471 32.0068 3.60781C32.1156 3.74285 32.0537 3.9278 32.0489 4.09369C32.4492 4.08794 32.8537 4.1238 33.2527 4.08039C33.2826 4.05114 33.3423 3.99357 33.3722 3.96441C33.427 3.99263 33.4824 4.02103 33.5371 4.05029C33.717 4.04444 33.8976 4.04368 34.0782 4.04274C34.0745 4.16635 34.0717 4.28988 34.0681 4.41359C33.8356 4.40878 33.6024 4.40227 33.3734 4.45502C33.2256 4.2862 33.0272 4.3398 32.8487 4.33338C32.5742 4.35037 32.2911 4.2862 32.0253 4.40217C31.8673 4.46068 31.694 4.44662 31.5546 4.32762C31.521 4.43803 31.5724 4.68527 31.4321 4.67574C30.8804 4.68527 30.3293 4.66923 29.7782 4.68055C29.7029 4.73339 29.6268 4.78341 29.5516 4.83238C29.4719 5.14756 29.2437 5.3579 29.0494 5.5504C29.0252 6.0345 29.1696 6.4865 29.2258 6.95635C29.117 6.99777 29.0075 7.04043 28.9001 7.08761C28.7458 7.57076 28.8404 8.23027 28.4834 8.56734C28.2097 8.77863 28.0285 9.23818 27.6593 9.16562C27.847 9.37322 27.6081 9.30811 27.633 9.14203C26.9653 9.0637 26.4029 8.54375 25.8227 8.14752C25.7957 8.36446 25.7531 8.57782 25.7089 8.79014C25.9293 8.84581 26.1114 9.06097 26.1505 9.36105C26.2209 10.0151 26.0801 10.6644 26.0822 11.3202C26.0979 11.7052 25.9734 12.058 25.8184 12.3722C25.6826 12.5761 25.4686 12.3665 25.3057 12.3364C25.2687 12.4317 25.2325 12.5271 25.197 12.6232C25.2432 12.8798 25.2631 13.1469 25.3278 13.3979C25.6911 13.931 26.0218 14.5087 26.2756 15.1456C26.5369 15.867 26.7698 16.6059 26.9732 17.3593C26.9931 17.5057 27.0969 17.5582 27.188 17.6113C27.2001 17.7623 27.2122 17.9131 27.2236 18.066C27.2591 18.1349 27.2954 18.2037 27.3324 18.2735C27.3544 19.2041 27.2684 20.1306 27.1595 21.0488C27.092 21.4632 27.2746 21.8679 27.2007 22.285C27.2092 22.4985 27.0984 22.6598 27.0464 22.8485C27.0364 23.2892 27.0201 23.7355 27.0565 24.1754C27.0819 24.4981 27.2876 24.7056 27.4269 24.9464C27.5791 25.1607 27.7064 25.4484 27.9368 25.5247C28.1536 25.6106 28.3606 25.7351 28.5517 25.8985C28.61 26.09 28.5993 26.293 28.5716 26.492C28.1549 26.5939 27.7297 26.543 27.3088 26.5516C26.9844 26.5741 26.6951 26.343 26.38 26.2947C26.075 26.2845 25.7031 26.4854 25.4686 26.1231C25.568 25.6203 25.5759 25.0804 25.7578 24.6113C25.8161 24.0801 25.7054 23.5412 25.7287 23.0052C25.694 22.9665 25.6242 22.8891 25.5893 22.8502C25.6143 22.5002 25.4841 22.1887 25.4407 21.8538C25.4124 21.3647 25.3788 20.8761 25.3362 20.3892C25.3028 20.1523 25.3952 19.9354 25.5211 19.7778C25.5324 19.5041 25.5603 19.2332 25.5801 18.9615C25.5495 18.785 25.4435 18.6539 25.3753 18.5029C25.147 18.6305 24.8392 18.57 24.7033 18.2735C24.3813 17.6376 24.0598 17.0016 23.7342 16.3692C23.6062 16.358 23.4711 16.3759 23.3516 16.3079C23.2138 16.1202 23.1419 15.8701 23.0539 15.6418C22.9279 15.8296 22.9371 16.1173 22.7879 16.2882C22.4722 16.6903 22.3883 17.281 22.2234 17.7961C22.0969 18.1301 22.168 18.533 22.0271 18.8587C21.9517 19.0341 21.7626 19.069 21.7128 19.2693C21.6474 19.4852 21.5706 19.7089 21.4177 19.8403C21.2521 19.9845 21.208 20.2583 21.1342 20.4846C21.0666 20.6932 21.1669 20.9121 21.1434 21.1264C21.0382 21.8068 20.7118 22.3758 20.5746 23.0421C20.512 23.3422 20.4223 23.68 20.1592 23.7441C19.8599 24.4537 19.695 25.3219 19.8642 26.1209C19.968 26.3719 19.9624 26.6541 19.9304 26.9306C19.4547 26.9797 18.9669 27.0646 18.4998 26.8882C18.3903 26.6003 18.4059 26.2615 18.4287 25.9504C18.573 25.1321 18.7643 24.3282 18.8816 23.5015C18.7351 23.3288 18.7693 23.0647 18.7721 22.8334C18.7672 22.4022 18.9882 22.0568 19.1418 21.7029C19.1995 21.3396 19.1725 20.9492 19.3139 20.6159C19.4803 20.1988 19.6211 19.7478 19.8778 19.4108C19.9268 19.1136 20.0919 18.8891 20.1586 18.6029C20.2297 18.35 20.1053 18.0933 20.1303 17.8348C20.1914 17.0505 20.2988 16.2739 20.392 15.4954C20.2157 15.3001 20.2725 14.9897 20.2163 14.7264C20.2441 14.6226 20.2789 14.5236 20.3209 14.4272C20.2768 14.3734 20.2335 14.3187 20.1893 14.265C20.232 13.9882 20.2199 13.4928 20.5399 13.5827C20.5598 12.6665 20.3202 11.7794 20.4005 10.8621C20.4432 10.9281 20.4851 10.9952 20.5278 11.0622L20.505 10.7517C20.6387 10.6573 20.7809 10.5847 20.9302 10.5479C20.6871 10.5055 20.4503 10.4234 20.2119 10.3497C20.1543 10.1486 20.1865 9.9345 20.2077 9.72879C20.3001 9.03426 20.3342 8.3303 20.3534 7.62634C20.6229 7.50196 20.9201 7.60756 21.1832 7.44138C21.1016 6.56096 21.081 5.64194 21.3169 4.79728C21.5068 4.07812 21.8695 3.38454 22.4354 3.13174C22.7027 3.0469 23.0391 2.9515 23.2281 3.29593C23.28 3.23271 23.3319 3.1676 23.3838 3.10437C22.9522 1.9669 23.4678 0.305132 24.447 0.0711074ZM27.9005 5.0045C27.7867 5.09698 27.6751 5.20276 27.7947 5.37073C27.7364 5.41688 27.6779 5.46132 27.6189 5.50369C27.5265 5.59806 27.3189 5.65175 27.343 5.84256C27.4469 6.06386 27.5364 6.29649 27.6105 6.53793C27.8372 6.29079 28.0178 5.95844 28.1401 5.60665C28.1657 5.57173 28.2177 5.5019 28.2432 5.46784C28.2319 5.30647 28.2048 5.14879 28.1572 4.99979C28.0719 5.00177 27.9858 5.00356 27.9005 5.0045Z" fill="white"/>
<path d="M29.9868 13.452C30.3124 12.9067 30.8386 12.6046 31.3604 12.616C32.9482 12.6179 34.5366 12.615 36.1244 12.6169C36.8989 12.6386 37.654 13.4418 37.7435 14.4855C35.5457 14.4758 33.3484 14.494 31.1514 14.4758C31.1493 16.4274 31.1464 18.3798 31.1514 20.3323C32.838 20.3286 34.5245 20.3247 36.2112 20.3342C36.2048 19.6349 36.2132 18.9357 36.2063 18.2365C35.3723 18.2428 34.5381 18.245 33.7041 18.2365C33.0351 18.2025 32.5373 17.4354 32.3866 16.6182C34.1799 16.6097 35.9725 16.6087 37.7656 16.6191C37.7579 17.8147 37.77 19.0113 37.7592 20.2069C37.7379 21.2138 37.0852 22.1 36.3371 22.201C34.6071 22.201 32.8764 22.2 31.1464 22.2C30.6295 22.1951 30.1723 21.762 29.8808 21.2214C29.6817 20.8391 29.6368 20.3645 29.6084 19.9143C29.6056 18.3101 29.6099 16.705 29.6069 15.1008C29.6135 14.5193 29.691 13.9051 29.9868 13.452ZM40.4768 12.6819C40.6554 12.6178 40.8416 12.6131 41.0259 12.616C42.4935 12.6218 43.9618 12.6095 45.4294 12.6207C46.2613 12.6679 46.9922 13.6211 47.0243 14.7288C47.0258 16.519 47.0258 18.3099 47.0243 20.1012C47.0094 21.1985 46.277 22.2214 45.4374 22.2027C43.8233 22.1932 42.2092 22.2093 40.595 22.1951C39.7901 22.0762 39.1722 21.0562 39.1665 20.0002C39.1551 18.3676 39.1679 16.7332 39.1601 15.1008C39.1537 14.6195 39.2191 14.125 39.4111 13.7098C39.6364 13.1879 40.0403 12.8226 40.4768 12.6819ZM40.73 14.4241C40.7329 16.4378 40.7236 18.4524 40.7343 20.4662C42.3107 20.4719 43.8879 20.4652 45.4643 20.4688C45.4691 18.4534 45.465 16.4376 45.4663 14.421C43.8878 14.4202 42.3086 14.4165 40.73 14.4241ZM0.0024931 14.9035C0.0359835 13.8117 0.724919 12.7858 1.56325 12.7434C3.12962 12.7414 4.69677 12.7414 6.26328 12.7443C7.10943 12.7331 7.81422 13.7475 7.87807 14.8355C7.76501 14.8479 7.65196 14.8571 7.5389 14.8591C5.67382 14.8564 3.80874 14.8601 1.9443 14.8571C1.94351 16.6161 1.93655 18.375 1.94785 20.134C3.92748 20.1301 5.90633 20.1283 7.88589 20.135C7.82972 21.2625 7.11433 22.2631 6.25197 22.3073C4.83272 22.3338 3.41347 22.3083 1.99414 22.3197C1.64075 22.3357 1.27669 22.2771 0.958214 22.0629C0.409284 21.6903 0.0209804 20.9305 0.00192426 20.1058C0.000359952 18.3714 -0.0017732 16.6378 0.0024931 14.9035ZM9.38549 14.0485C9.64645 13.2926 10.2437 12.7312 10.8795 12.7415C12.4438 12.7435 14.0088 12.7415 15.5739 12.7424C16.3908 12.749 17.1104 13.6982 17.1681 14.7695C15.1045 14.8082 13.0396 14.775 10.9755 14.7855C10.9662 15.3366 10.9706 15.8877 10.9699 16.4396C12.5043 16.4461 14.0395 16.4415 15.5739 16.4415C16.0289 16.4651 16.5068 16.6586 16.8167 17.1257C17.1651 17.5391 17.3123 18.1685 17.3237 18.7743C17.3315 19.3792 17.3315 19.987 17.2575 20.586C17.0883 21.5562 16.3893 22.279 15.6435 22.3102C14.1518 22.3289 12.6592 22.312 11.1675 22.3196C10.8156 22.3291 10.4515 22.262 10.1393 22.0346C9.64439 21.692 9.28886 21.0029 9.23987 20.2633C11.3403 20.2767 13.4415 20.2718 15.5419 20.2653C15.5469 19.6781 15.544 19.0913 15.544 18.5044C13.9897 18.4903 12.4346 18.5024 10.8795 18.4986C9.98576 18.5081 9.19508 17.4181 9.21911 16.2358C9.25039 15.5073 9.1239 14.7251 9.38549 14.0485ZM47.5099 12.9378C47.7076 12.9312 47.9074 12.9209 48.1043 12.9605C48.0126 12.9916 47.9193 13.0077 47.8256 13.0096C47.8135 13.2937 47.8121 13.5777 47.8149 13.8616C47.7943 13.8616 47.7538 13.8616 47.7339 13.8625C47.7353 13.5709 47.7374 13.2794 47.7346 12.9887C47.6791 12.9946 47.5689 13.0077 47.5141 13.0132L47.5099 12.9378ZM48.2152 12.9273C48.2572 12.9302 48.3424 12.9359 48.3853 12.9387C48.4457 13.1943 48.5168 13.4453 48.605 13.6879C48.6874 13.4435 48.7415 13.1829 48.8325 12.9453C48.8723 12.9378 48.952 12.9217 48.9916 12.9142C48.9696 13.2614 49.0599 13.6455 48.9185 13.9616C48.8929 13.654 48.9036 13.3444 48.8886 13.0358C48.7805 13.3237 48.7294 13.6473 48.5879 13.9135C48.4798 13.6399 48.4336 13.3283 48.3042 13.0701C48.2957 13.3456 48.2999 13.6221 48.2971 13.8984L48.221 13.887C48.2209 13.5673 48.2174 13.2473 48.2152 12.9273Z" fill="white"/>
</g>
<defs>
<clipPath id="clip0_320_649">
<rect width="49" height="27" fill="white"/>
</clipPath>
</defs>
</svg>
