<svg width="31" height="31" viewBox="0 0 31 31" fill="none" xmlns="http://www.w3.org/2000/svg">
<path fill-rule="evenodd" clip-rule="evenodd" d="M5.99375 17.9375L12.25 24.7081L6.44063 26.0625L3.3125 23.3544L5.99375 17.9375ZM22.5054 4.9375L25.25 6.44631L24.3351 11.4375L17.931 7.25881L22.5054 4.9375ZM5.44531 4.9375C5.75 4.9375 5.99456 4.9505 6.35938 5.24219C6.86719 5.64844 8.74 6.97444 8.74 6.97444L9.07963 7.57812C9.69794 7.609 9.71338 7.66506 10.4942 8.23869L27.6875 19.9013C27.5551 20.1881 25.5108 26.0625 25.5108 26.0625H22.3551L3.3125 5.95312C3.3125 5.95312 3.62288 5.83694 3.92188 5.64844C4.39069 5.3535 4.98056 4.9375 5.44531 4.9375ZM7.78125 0.875H0.875002C0.446002 1.0895 0.0625024 1.33813 0.0625024 2.19531V7.78125V9.50781L0.865252 11.7406L0.0625024 12.8594V13.7734L0.875002 14.3828V15.5L0.0625024 16.3125V19.3594L0.875002 19.8672V23.2188C0.0267524 23.8224 0.0625024 24.5391 0.0625024 25.3629V29.2109C1.96294 29.6854 1.64769 30.125 3.82031 30.125C5.74025 30.125 6.96875 30.125 6.96875 30.125C7.26288 30.1063 7.492 30.0446 7.78125 30.0169C8.58888 29.9389 9.10156 29.3125 9.10156 29.3125L11.2344 30.125L12.0469 29.3125C12.0469 29.3125 13.1121 30.6312 13.3672 30.9375L14.0781 30.125L16.3125 30.9375C16.3125 30.9375 17.1413 30.1421 18.0391 30.125H22.4063C22.4729 30.0608 23.2188 29.3125 23.2188 29.3125C23.5608 29.5173 23.2586 30.125 26.3672 30.125C27.2252 30.125 27.9922 29.9219 27.9922 29.9219C27.8606 29.4831 27.8459 29.5725 27.5859 29.3125C27.5859 29.3125 29.6172 29.3125 30.9375 30.125V17.5369L29.3125 18.0391C29.3442 17.7815 30.0949 17.4394 30.125 16.9219C30.1632 16.2694 30.0893 14.0083 29.9942 13.5305C29.9454 13.2868 29.4799 12.5726 29.3125 12.3516C29.5116 11.8145 30.125 11.4375 30.125 11.4375V10.8281L30.9375 10.3544V6.92406L30.125 3.51562L30.9375 2.63569V1.66394L30.0795 0.9205L27.2926 0.459812L26.6491 0.9205L26.3274 0.38425C26.3274 0.38425 22.1154 0.0641249 21.3516 0.0641249C20.3742 0.0641249 20.5164 0.13725 20.1857 1.23819L18.7833 1.38119L18.6484 0.875H17.2266L17.4606 0.617438C17.7092 0.382625 17.6223 0.476875 17.8164 0.0625H12.9268C12.8504 0.20225 12.5709 0.519125 12.3508 0.875C12.3508 0.875 11.9218 0.870937 11.6 1.08544C11.2783 1.29994 11.2799 1.6875 10.8509 1.6875C10.4219 1.6875 9.53219 1.6875 9.02844 1.6875C7.95594 1.6875 7.78125 0.875 7.78125 0.875Z" fill="url(#paint0_linear_303_65)"/>
<defs>
<linearGradient id="paint0_linear_303_65" x1="15.4999" y1="0.0625" x2="15.4999" y2="30.9375" gradientUnits="userSpaceOnUse">
<stop stop-color="#CC1623"/>
<stop offset="1" stop-color="#F7472B"/>
</linearGradient>
</defs>
</svg>
