<svg width="70" height="25" viewBox="0 0 70 25" fill="none" xmlns="http://www.w3.org/2000/svg">
<path fill-rule="evenodd" clip-rule="evenodd" d="M65.3043 12.862V12.6266C65.3043 11.1999 65.3045 9.77312 65.3042 8.3463C65.3041 7.65018 64.9746 7.24705 64.2603 7.06758C64.2044 7.05347 64.1437 7.04863 64.0932 7.02437C64.0304 6.99429 63.9761 6.94846 63.9181 6.90953C63.9793 6.87254 64.0356 6.81606 64.1022 6.80168C64.9627 6.61578 65.8244 6.43547 66.6862 6.25454C67.7112 6.03919 68.7363 5.82404 69.762 5.61096C69.8308 5.59665 69.9041 5.60101 69.9753 5.59665C69.9835 5.61449 69.9916 5.63239 69.9999 5.65023C69.9269 5.71121 69.8532 5.77156 69.7809 5.8333C69.51 6.06497 69.2118 6.27459 68.9761 6.53482C68.6974 6.84247 68.5866 7.22368 68.5872 7.6378C68.5916 11.2413 68.5897 14.8448 68.5896 18.4482C68.5896 18.9135 68.5087 18.966 68.0635 18.7627C66.4345 18.0192 65.552 16.7785 65.3421 15.0937C65.3323 15.015 65.3084 14.9335 65.3205 14.8575C65.3746 14.5184 65.1858 14.3202 64.9254 14.1167C63.6082 13.0873 62.3056 12.041 60.9975 11.001C60.9494 10.9628 60.8983 10.9281 60.8206 10.8712C60.8163 10.9616 60.8109 11.0245 60.8109 11.0874C60.8104 12.7336 60.8125 14.3799 60.8095 16.0261C60.8084 16.6983 61.1359 17.1734 61.7575 17.4798C61.8546 17.5276 61.9576 17.5652 62.0522 17.6169C62.1129 17.6501 62.1629 17.7003 62.2265 17.7496C62.0476 17.8493 56.2995 17.851 56.1035 17.7447C56.2051 17.6819 56.2846 17.6185 56.3756 17.5786C56.7011 17.436 57.0048 17.2696 57.2177 16.9847C57.4167 16.7185 57.5266 16.4277 57.5264 16.0984C57.5247 13.94 57.526 11.7816 57.5251 9.6231C57.5249 9.10458 57.2207 8.73236 56.6884 8.59485C56.5456 8.558 56.3986 8.53414 56.259 8.48914C56.2082 8.47275 56.1734 8.41198 56.1313 8.3714C56.1771 8.33773 56.2191 8.28097 56.2692 8.27371C57.1609 8.14401 58.0534 8.01791 58.947 7.90038C59.0138 7.8916 59.1039 7.93944 59.1616 7.98521C61.1088 9.5288 63.0534 11.0754 64.9985 12.6214C65.0857 12.6906 65.1736 12.7592 65.3043 12.862Z" fill="white"/>
<path fill-rule="evenodd" clip-rule="evenodd" d="M11.9681 9.85732C11.939 9.77948 11.9047 9.70294 11.8815 9.62351C11.593 8.6357 11.1549 7.72056 10.398 6.96912C9.72115 6.29727 8.91639 5.87437 7.9015 5.91481C7.00521 5.95062 6.29021 6.35078 5.68466 6.94493C4.92775 7.68765 4.46266 8.58689 4.19834 9.57484C3.67531 11.5294 3.77613 13.4434 4.72516 15.2761C5.1375 16.0725 5.72029 16.738 6.55206 17.1875C7.14671 17.5087 7.78547 17.5977 8.45569 17.5475C8.71973 17.5278 8.89949 17.3916 8.94199 17.1488C8.99759 16.8315 9.03966 16.5091 9.04837 16.188C9.06476 15.5848 9.04273 14.9807 9.0562 14.3773C9.06841 13.8296 8.82025 13.41 8.342 13.1416C8.02617 12.9645 7.65744 12.8709 7.31058 12.7443C7.17882 12.6962 7.03638 12.6715 6.91018 12.614C6.85362 12.5882 6.82502 12.5078 6.78368 12.4521C6.84155 12.4221 6.89672 12.3851 6.9581 12.3644C6.99834 12.351 7.0475 12.3607 7.09264 12.3607C9.2219 12.3607 11.3511 12.3599 13.4804 12.3638C13.565 12.364 13.6497 12.4096 13.7343 12.4339C13.6651 12.4882 13.6039 12.5589 13.525 12.593C13.3852 12.6532 13.2299 12.6812 13.0894 12.7405C12.6033 12.9455 12.3337 13.2871 12.3359 13.8077C12.3395 14.6369 12.3268 15.4661 12.3334 16.2953C12.3347 16.4589 12.2764 16.5677 12.1531 16.6726C11.4894 17.238 10.714 17.6148 9.87069 17.8683C8.48159 18.2858 7.05635 18.458 5.61319 18.2387C3.77854 17.9601 2.35513 17.0289 1.31061 15.5939C-0.657916 12.8896 -0.381224 9.23317 1.95421 6.80673C3.87957 4.80636 7.02145 4.26994 9.61463 5.49758C9.96009 5.66115 10.3049 5.82673 10.657 5.97682C11.0607 6.14883 11.4877 6.24472 11.9322 6.23857C12.0965 6.23636 12.1698 6.29485 12.1847 6.44079C12.2032 6.62262 12.2446 6.80486 12.2393 6.98592C12.2152 7.82592 12.1817 8.66578 12.1422 9.50522C12.1366 9.62489 12.0801 9.74235 12.0472 9.86085C12.0208 9.85967 11.9945 9.8585 11.9681 9.85732Z" fill="white"/>
<path fill-rule="evenodd" clip-rule="evenodd" d="M39.2399 9.63788H39.4304C40.5594 9.63788 41.6886 9.63788 42.8177 9.63795C42.8628 9.63795 42.9095 9.63269 42.9528 9.6414C43.0561 9.66228 43.0642 9.72416 42.9939 9.78258C42.9374 9.82945 42.8638 9.86043 42.7937 9.8896C42.4096 10.0496 42.2161 10.343 42.2048 10.7228C42.186 11.3564 42.194 11.9909 42.2008 12.6249C42.2036 12.8795 42.4109 13.0772 42.6855 13.0796C43.5306 13.0872 44.3759 13.0866 45.2211 13.0804C45.5003 13.0784 45.7111 12.8986 45.7158 12.6354C45.7275 11.9835 45.7331 11.3306 45.7068 10.6793C45.6917 10.3066 45.4815 10.0246 45.0976 9.88207C45.0797 9.87543 45.0597 9.86872 45.0466 9.85642C44.991 9.80443 44.9376 9.75029 44.8835 9.69699C44.9516 9.67729 45.0197 9.64064 45.088 9.64044C46.2235 9.63684 47.359 9.63774 48.4946 9.63836C48.5574 9.63836 48.6202 9.64479 48.718 9.69291C48.671 9.74303 48.6342 9.81825 48.5756 9.8392C48.0156 10.0396 47.8635 10.4476 47.8665 10.9728C47.8773 12.8324 47.8747 14.6921 47.8682 16.5518C47.8664 17.0457 48.0408 17.4167 48.5521 17.6083C48.6121 17.6307 48.6504 17.7051 48.6987 17.7555C48.6323 17.7764 48.566 17.8152 48.4995 17.8154C47.3575 17.8192 46.2155 17.819 45.0735 17.8159C45.0104 17.8157 44.9476 17.7829 44.8845 17.7652C44.931 17.7138 44.967 17.6367 45.0259 17.6151C45.5657 17.4166 45.7347 17.0177 45.7272 16.5092C45.7199 16.0276 45.7261 15.5459 45.7253 15.0642C45.7247 14.6452 45.543 14.471 45.1071 14.4708C44.3328 14.4703 43.5586 14.4701 42.7843 14.4709C42.3881 14.4714 42.1987 14.6473 42.1978 15.0161C42.1965 15.5527 42.1957 16.0892 42.1981 16.6257C42.2 17.075 42.3861 17.4157 42.8481 17.5894C42.8839 17.6028 42.9253 17.6159 42.949 17.6417C42.9836 17.6791 43.0043 17.7278 43.031 17.7717C42.9857 17.7872 42.9404 17.8162 42.8951 17.8162C42.0263 17.8151 41.2199 18.0598 40.427 18.3644C39.9546 18.5459 39.4732 18.7002 38.898 18.699C38.9878 18.6167 39.0472 18.5606 39.1084 18.5062C39.5601 18.1046 39.9057 17.6428 40.011 17.0511C40.0396 16.8898 40.0509 16.7238 40.0512 16.56C40.0538 14.676 40.0513 12.7919 40.0539 10.9078C40.0546 10.4192 39.8816 10.041 39.368 9.85068C39.3008 9.82579 39.2532 9.75382 39.1963 9.70363C39.2109 9.68178 39.2255 9.6598 39.2399 9.63788Z" fill="white"/>
<path fill-rule="evenodd" clip-rule="evenodd" d="M24.1902 12.0349C24.1848 12.1302 24.1785 12.1878 24.1785 12.2453C24.178 13.6838 24.1813 15.1223 24.1764 16.5609C24.1747 17.0454 24.3459 17.4172 24.853 17.6006C24.8886 17.6135 24.9279 17.6303 24.9513 17.6565C24.9773 17.6858 25.0065 17.733 24.998 17.763C24.9908 17.7883 24.9314 17.8147 24.8946 17.8154C24.656 17.8201 24.4173 17.8181 24.1786 17.8181C23.2562 17.8181 22.3338 17.8186 21.4113 17.8173C21.3385 17.8172 21.2656 17.8044 21.1927 17.7975C21.1844 17.7791 21.176 17.7606 21.1676 17.7422C21.2311 17.6941 21.2869 17.6281 21.3591 17.6011C21.8554 17.415 22.0331 17.0482 22.0331 16.5738C22.0327 14.678 22.0325 12.7824 22.0331 10.8867C22.0334 10.4124 21.859 10.0425 21.361 9.86011C21.3252 9.84704 21.2839 9.83321 21.2606 9.80735C21.2302 9.77369 21.2152 9.72764 21.1935 9.68692C21.2324 9.67067 21.2714 9.64039 21.3104 9.64026C22.0135 9.63749 22.7165 9.63555 23.4196 9.64337C23.4806 9.64399 23.5566 9.70213 23.599 9.75336C24.9177 11.3467 26.2332 12.9424 27.5492 14.5378C27.5906 14.5881 27.633 14.6375 27.7151 14.6741V14.43C27.7151 13.2473 27.7117 12.0648 27.7167 10.8823C27.7188 10.4034 27.5397 10.0419 27.0458 9.85679C26.9936 9.83722 26.9355 9.80646 26.9076 9.76456C26.8918 9.74105 26.9219 9.67489 26.9512 9.64537C26.97 9.6265 27.0247 9.63811 27.0633 9.63811C28.2115 9.6379 29.3597 9.63777 30.5079 9.63839C30.5648 9.63839 30.6217 9.64503 30.7479 9.65277C30.6681 9.73988 30.6322 9.81586 30.5741 9.83674C30.0065 10.0406 29.856 10.4584 29.8589 10.987C29.8684 12.7059 29.8614 14.4249 29.8631 16.1439C29.8638 16.8244 29.9318 17.4956 30.2309 18.1262C30.3171 18.308 30.4266 18.4799 30.5428 18.6874C30.4603 18.6816 30.3954 18.6846 30.3342 18.6717C29.8368 18.5667 29.4336 18.3098 29.1095 17.9492C28.7717 17.5732 28.4513 17.1831 28.1299 16.7944C26.8594 15.2581 25.5917 13.72 24.3226 12.1828C24.2889 12.1421 24.252 12.1038 24.1902 12.0349Z" fill="white"/>
<path fill-rule="evenodd" clip-rule="evenodd" d="M37.369 8.07055C37.9649 8.92617 38.3994 9.83447 38.677 10.8074C38.6593 10.8204 38.6416 10.8334 38.6239 10.8463C38.5652 10.8289 38.5025 10.8188 38.4483 10.7927C38.2592 10.7015 38.0741 10.603 37.8855 10.5105C37.4754 10.3094 37.1735 10.0288 36.9503 9.62914C36.3096 8.48191 35.108 8.26151 34.143 8.49857C33.4149 8.67749 33.1015 9.45257 33.5247 10.0411C33.6833 10.2617 33.9083 10.4548 34.1406 10.6104C35.061 11.2269 35.9989 11.8202 36.9245 12.4299C37.2043 12.6142 37.4804 12.8082 37.7323 13.0247C38.7697 13.9166 39.0153 15.0442 38.7634 16.2968C38.5007 17.6038 37.5233 18.4242 36.0726 18.5974C35.1385 18.7089 34.2206 18.6579 33.3208 18.3819C32.8193 18.2281 32.3222 18.211 31.8319 18.4496C31.5767 18.2107 31.4276 17.9147 31.3292 17.5982C31.0688 16.7611 31.0272 15.9078 31.1502 15.0455C31.156 15.0049 31.1693 14.9651 31.1932 14.8666C31.279 15.0012 31.3371 15.0961 31.3989 15.1887C31.6974 15.6362 31.9609 16.1097 32.3035 16.5248C33.0406 17.4177 34.0137 17.9267 35.2341 17.9193C36.3789 17.9124 36.9541 16.9541 36.6973 16.0738C36.5963 15.7275 36.3267 15.4944 36.0251 15.2964C35.1036 14.6916 34.1796 14.0905 33.2581 13.4858C33.0516 13.3503 32.8474 13.2109 32.649 13.0651C31.6102 12.3014 31.1534 10.8331 31.6359 9.70464C32.082 8.66118 32.9659 8.12745 34.1041 7.93C34.8454 7.80141 35.5667 7.94473 36.2873 8.08901C36.6463 8.16091 37.007 8.24408 37.369 8.07055Z" fill="white"/>
<path fill-rule="evenodd" clip-rule="evenodd" d="M12.8505 18.1641C13.7404 17.5406 14.3642 16.7924 14.1855 15.6334C13.7174 15.8829 13.2606 16.1263 12.786 16.3793C12.9882 15.9393 13.2525 15.5489 13.552 15.1784C14.4654 14.0484 15.6903 13.3397 17.0964 12.9066C17.6551 12.7345 18.2471 12.6536 18.8284 12.5548C19.0128 12.5235 19.2132 12.5589 19.4037 12.5822C19.5413 12.599 19.6152 12.6713 19.5768 12.8258C19.5478 12.9423 19.5476 13.0682 19.5545 13.189C19.5711 13.4756 19.7078 13.6822 20.0083 13.7846C20.2561 13.869 20.5104 13.9529 20.6598 14.1833C20.6952 14.2378 20.7222 14.2972 20.7683 14.3827C20.656 14.3894 20.5761 14.3973 20.496 14.3985C19.2689 14.4182 18.0496 14.509 16.847 14.7537C16.3607 14.8527 16.3607 14.8525 16.3607 15.3259C16.3607 15.7403 16.3588 16.1548 16.3614 16.5693C16.3636 16.9189 16.5527 17.0956 16.9235 17.0966C17.4332 17.0979 17.9429 17.0882 18.4521 17.0989C19.2761 17.1161 19.9129 16.7866 20.38 16.1658C20.5832 15.8955 20.7351 15.5906 20.9239 15.2791C20.9395 15.3635 20.9676 15.4462 20.9684 15.5291C20.9758 16.2888 20.7874 17.0126 20.517 17.7222C20.4719 17.8407 20.3859 17.8174 20.3005 17.8175C19.2169 17.8185 18.1332 17.8294 17.0498 17.8152C15.7427 17.7981 14.4469 17.8682 13.1731 18.1687C13.0809 18.1905 12.9833 18.1917 12.8882 18.2025C12.8756 18.1897 12.863 18.1769 12.8505 18.1641Z" fill="white"/>
<path fill-rule="evenodd" clip-rule="evenodd" d="M50.0563 17.7227C50.1258 17.6892 50.1922 17.6472 50.2654 17.6237C50.4237 17.5727 50.589 17.5397 50.7453 17.4842C51.2483 17.3057 51.4682 17.0016 51.4682 16.4988C51.4683 14.6576 51.4683 12.8164 51.4682 10.9752C51.4682 10.4418 51.2285 10.126 50.6889 9.95385C50.5426 9.90725 50.3919 9.87358 50.2461 9.82602C50.1793 9.80417 50.1195 9.76297 50.0455 9.72487C50.1905 9.61937 54.9574 9.60105 55.1929 9.70572C55.1159 9.75266 55.0637 9.79885 55.0018 9.81959C54.8444 9.87227 54.6806 9.90815 54.5231 9.96035C53.9908 10.1366 53.7605 10.4463 53.7605 10.9747C53.7606 12.8158 53.7606 14.6571 53.7605 16.4983C53.7605 16.987 53.9658 17.286 54.4477 17.4699C54.6321 17.5402 54.8298 17.5789 55.0176 17.6422C55.0702 17.6599 55.1092 17.7139 55.1544 17.7513C55.1014 17.7735 55.0484 17.815 54.9954 17.8152C53.4082 17.8187 51.821 17.8183 50.2339 17.8167C50.1804 17.8167 50.127 17.7986 50.0735 17.7888C50.0678 17.7668 50.0621 17.7447 50.0563 17.7227Z" fill="white"/>
<path fill-rule="evenodd" clip-rule="evenodd" d="M31.1598 6.58556C30.7137 6.66465 30.3011 6.76344 29.882 6.80734C28.5432 6.94748 27.2024 7.0695 25.8879 7.36492C25.1269 7.53596 24.3937 7.77911 23.6934 8.10902C23.6361 8.13598 23.582 8.16896 23.5264 8.19917C23.5336 8.21501 23.5409 8.23077 23.5481 8.2466C23.7351 8.19689 23.9219 8.14712 24.1387 8.08946C24.1293 8.39268 24.3505 8.48132 24.5777 8.56815C24.7463 8.63258 24.9114 8.70524 25.0782 8.77424C25.0744 8.79471 25.0706 8.81517 25.0668 8.83556C24.9418 8.83556 24.8166 8.84013 24.6918 8.83487C23.7793 8.79664 22.9232 8.58274 22.1616 8.08946C21.9195 7.93286 21.7104 7.75 21.6335 7.46081C21.5981 7.32793 21.6302 7.24829 21.7362 7.16187C22.6347 6.42889 23.6533 5.8931 24.7574 5.49204C26.0519 5.02185 27.3819 4.66325 28.7269 4.35124C29.0957 4.26565 29.3647 4.37094 29.5724 4.67611C29.7118 4.88075 29.8394 5.09251 29.9739 5.30019C30.1688 5.60107 30.4033 5.89365 30.7405 6.0286C31.0164 6.13908 31.0602 6.3292 31.1598 6.58556Z" fill="white"/>
<path fill-rule="evenodd" clip-rule="evenodd" d="M44.9087 8.76992C45.0999 8.69269 45.2863 8.61775 45.4724 8.54225C45.6528 8.46904 45.8308 8.39714 45.8545 8.17266C45.8567 8.15109 45.9665 8.11645 46.0173 8.12689C46.1719 8.15869 46.3219 8.20957 46.4738 8.25299C46.4811 8.23806 46.4885 8.22299 46.4959 8.20798C46.4405 8.17812 46.3862 8.14611 46.3294 8.1188C45.3381 7.64149 44.2828 7.34628 43.1891 7.18699C42.1768 7.03967 41.1567 6.94177 40.142 6.80869C39.7604 6.75856 39.3842 6.67145 39.0059 6.59907C38.9577 6.5898 38.9121 6.56726 38.854 6.54701C38.9324 6.32654 38.9784 6.13959 39.2529 6.02856C39.5906 5.89209 39.825 5.60034 40.021 5.3005C40.1565 5.09337 40.2829 4.88085 40.4219 4.67593C40.6254 4.37581 40.8843 4.26354 41.2484 4.34761C42.8641 4.72045 44.464 5.14384 45.9865 5.78908C46.8144 6.13987 47.5715 6.59934 48.2608 7.15906C48.378 7.25419 48.4203 7.35831 48.351 7.47591C48.2528 7.64267 48.1618 7.83507 48.0107 7.94845C47.1288 8.61001 46.1009 8.8506 44.9909 8.82509C44.9729 8.82467 44.9549 8.81582 44.9377 8.80925C44.9326 8.80739 44.9301 8.79971 44.9087 8.76992Z" fill="white"/>
<path fill-rule="evenodd" clip-rule="evenodd" d="M38.7069 3.83109C38.5976 3.8752 38.49 3.92373 38.3787 3.96273C37.854 4.14607 37.3231 4.31456 36.8045 4.51201C36.311 4.69985 35.9487 5.0391 35.751 5.50514C35.5312 6.02331 35.346 6.55454 35.1462 7.08018C35.1332 7.11447 35.1324 7.15588 35.1109 7.18361C35.0795 7.22405 35.033 7.28385 34.9956 7.28219C34.9559 7.2804 34.8996 7.22274 34.8844 7.1789C34.8002 6.93652 34.7448 6.68396 34.6448 6.44794C34.4684 6.03133 34.2826 5.61686 34.0713 5.21532C33.8917 4.87428 33.5662 4.65851 33.2037 4.51858C32.6802 4.31663 32.1425 4.1478 31.612 3.96197C31.502 3.92339 31.397 3.87244 31.2897 3.82715C31.2885 3.80455 31.2873 3.78201 31.2861 3.7594C31.3983 3.71142 31.5077 3.65577 31.6232 3.61664C32.0712 3.46495 32.5228 3.32288 32.97 3.16905C33.6314 2.94167 34.0969 2.51787 34.3418 1.89295C34.5182 1.44295 34.6755 0.986311 34.8408 0.532507C34.8492 0.509554 34.8479 0.481554 34.8616 0.46268C34.9058 0.401979 34.955 0.344458 35.0021 0.285693C35.0478 0.347224 35.1118 0.402947 35.136 0.471253C35.248 0.788239 35.3553 1.10702 35.4526 1.42829C35.754 2.42336 36.4251 3.06314 37.4817 3.34493C37.7909 3.42748 38.0949 3.52807 38.399 3.62645C38.5046 3.66054 38.6036 3.71287 38.7056 3.75691C38.7061 3.78159 38.7065 3.80641 38.7069 3.83109Z" fill="white"/>
<path fill-rule="evenodd" clip-rule="evenodd" d="M20.4746 12.0476C20.3833 11.8634 20.3031 11.6733 20.1985 11.4961C19.8909 10.9751 19.4861 10.5527 18.8487 10.3928C18.7008 10.3556 18.5446 10.3341 18.3918 10.3317C17.9016 10.324 17.4112 10.3281 16.9208 10.3292C16.5553 10.3298 16.363 10.5101 16.3615 10.8599C16.359 11.4574 16.3645 12.0549 16.3556 12.6523C16.3547 12.7194 16.301 12.819 16.2417 12.8471C15.5109 13.1944 14.8402 13.6212 14.2133 14.1912C14.2133 14.0922 14.2134 14.0305 14.2133 13.9686C14.2104 12.9445 14.2068 11.9204 14.2048 10.8962C14.2035 10.1821 13.9332 9.60247 13.2731 9.21449C13.2357 9.1925 13.2048 9.16056 13.1717 9.13243C13.1684 9.12959 13.1703 9.1213 13.1673 9.08763C13.2618 9.09655 13.3538 9.09903 13.4431 9.1148C14.1589 9.2409 14.8691 9.41768 15.5909 9.48571C16.5839 9.57918 17.5852 9.59743 18.5836 9.63497C19.0345 9.65198 19.4867 9.64071 19.9383 9.63587C20.05 9.63469 20.1108 9.66186 20.149 9.7702C20.3746 10.4093 20.5343 11.0594 20.543 11.7365C20.5444 11.8402 20.525 11.9441 20.5152 12.0481C20.5017 12.0479 20.4882 12.0478 20.4746 12.0476Z" fill="white"/>
<path fill-rule="evenodd" clip-rule="evenodd" d="M25.5615 20.537C25.4564 20.5888 25.4009 20.6228 25.3405 20.6448C25.024 20.7599 24.885 20.9763 24.8884 21.2953C24.8953 21.9475 24.8904 22.5999 24.8905 23.252C24.8906 23.5972 25.0375 23.7907 25.3865 23.9084C25.4822 23.9406 25.5766 23.9762 25.6715 24.0102C25.666 24.028 25.6604 24.0458 25.6548 24.0635H23.1701C23.165 24.0509 23.1599 24.0382 23.1549 24.0255C23.2035 23.9917 23.2484 23.951 23.3013 23.9252C23.4895 23.8337 23.6123 23.6841 23.6159 23.4934C23.6286 22.8081 23.6209 22.1224 23.5955 21.421C23.5632 21.4797 23.5273 21.5368 23.4989 21.5972C23.1818 22.2697 22.8707 22.9448 22.5463 23.6143C22.4637 23.7847 22.3398 23.9373 22.2349 24.098L22.1687 24.0776C21.7395 23.1668 21.3103 22.256 20.8811 21.3451C20.8626 21.3486 20.8441 21.352 20.8256 21.3554V21.5945C20.8256 22.1371 20.8307 22.6796 20.8236 23.2221C20.8195 23.5425 20.8887 23.8163 21.2315 23.9629C21.26 23.975 21.2755 24.0145 21.3148 24.0634H19.6917C19.6875 24.0483 19.6834 24.0333 19.6792 24.0182C19.7567 23.9869 19.8325 23.9506 19.9123 23.9253C20.3293 23.7928 20.4719 23.6099 20.4721 23.1996C20.4724 22.59 20.4634 21.9803 20.4754 21.3708C20.4827 21.0036 20.3456 20.7454 19.9639 20.6246C19.9188 20.6103 19.8803 20.5771 19.79 20.5241C19.8895 20.5094 19.9346 20.4969 19.9797 20.4968C20.5345 20.4954 21.0894 20.4997 21.6442 20.493C21.7699 20.4916 21.8223 20.5384 21.8694 20.641C22.1386 21.2263 22.4156 21.8085 22.7108 22.4361C22.7584 22.3466 22.7896 22.2932 22.8158 22.2379C23.0675 21.7043 23.3156 21.1692 23.573 20.638C23.6014 20.5793 23.6803 20.5033 23.737 20.5023C24.2981 20.4923 24.8595 20.4961 25.4207 20.4977C25.4484 20.4978 25.476 20.5125 25.5615 20.537Z" fill="white"/>
<path fill-rule="evenodd" clip-rule="evenodd" d="M30.6428 22.4095C30.7344 22.4095 30.8064 22.4231 30.8701 22.4073C31.2513 22.3129 31.5564 21.9533 31.5285 21.5141C31.505 21.143 31.2149 20.8185 30.8204 20.7315C30.6671 20.6977 30.6405 20.7491 30.6417 20.8724C30.6452 21.2064 30.6428 21.5404 30.6428 21.8744C30.6428 22.0488 30.6428 22.2233 30.6428 22.4095ZM30.6855 22.6646C30.6855 22.9375 30.6597 23.1944 30.6928 23.4444C30.7252 23.6894 30.9261 23.8257 31.1658 23.9051C31.2651 23.9379 31.3635 23.9732 31.4622 24.0074C31.4581 24.0248 31.454 24.0421 31.4499 24.0596H28.6598C28.6538 24.05 28.6477 24.0404 28.6416 24.0307C28.6889 24.0041 28.7338 23.9723 28.7841 23.9521C28.8671 23.919 28.9573 23.901 29.0376 23.8635C29.2899 23.7456 29.4292 23.5605 29.4273 23.2837C29.4229 22.6192 29.4236 21.9547 29.4269 21.2903C29.4285 20.973 29.2836 20.7562 28.9672 20.6426C28.9075 20.6211 28.8535 20.5859 28.7968 20.557C28.8013 20.5409 28.8058 20.5247 28.8104 20.5087C28.8702 20.5044 28.9301 20.4965 28.99 20.4965C29.6931 20.4956 30.3962 20.4963 31.0994 20.4958C31.514 20.4954 31.9071 20.574 32.2611 20.7861C32.9812 21.2174 32.9787 21.9491 32.2563 22.3736C31.895 22.5859 31.4955 22.6643 31.0751 22.6646C30.9478 22.6648 30.8206 22.6646 30.6855 22.6646" fill="white"/>
<path fill-rule="evenodd" clip-rule="evenodd" d="M38.1428 21.1857C38.125 21.1865 38.1072 21.1872 38.0894 21.1879C37.8766 21.6406 37.664 22.0933 37.4417 22.5668H38.792C38.5683 22.0908 38.3556 21.6383 38.1428 21.1857ZM37.7813 20.4036C38.1704 20.4036 38.5429 20.3974 38.9145 20.4105C38.9695 20.4124 39.0415 20.4975 39.0708 20.5589C39.5242 21.5131 39.9765 22.4678 40.4178 23.427C40.5397 23.6922 40.7174 23.8749 41.0189 23.945C41.079 23.9589 41.133 23.9961 41.1899 24.0228C41.1849 24.0371 41.1799 24.0516 41.1749 24.066H38.7247L38.7037 24.0233C38.7696 23.9936 38.8331 23.9574 38.9017 23.9354C39.2447 23.8259 39.304 23.7035 39.1622 23.3869C38.9434 22.8983 38.9434 22.8983 38.3819 22.8983C38.0659 22.8983 37.7498 22.8923 37.4344 22.9035C37.3704 22.9059 37.283 22.9607 37.2515 23.0148C37.168 23.1577 37.1007 23.3107 37.0425 23.465C36.9512 23.707 37.0199 23.8294 37.2744 23.9152C37.3619 23.9447 37.4477 23.9789 37.5343 24.0109C37.5312 24.0266 37.528 24.0421 37.5249 24.0578H35.906C35.9016 24.0461 35.8972 24.0345 35.8928 24.0228C35.9571 23.9941 36.0185 23.9547 36.0861 23.9385C36.3648 23.872 36.5406 23.7072 36.6546 23.4614C37.0393 22.6317 37.4275 21.8033 37.8244 20.9787C37.8999 20.822 37.9304 20.6859 37.8251 20.5364C37.8024 20.5041 37.7989 20.4596 37.7813 20.4036" fill="white"/>
<path fill-rule="evenodd" clip-rule="evenodd" d="M55.3226 24.0676H52.5386C52.5331 24.0536 52.5277 24.0396 52.5224 24.0255C52.5839 23.9968 52.6431 23.9611 52.7076 23.9403C53.1905 23.7856 53.3052 23.6359 53.3052 23.1512C53.3053 22.4685 53.3052 21.7858 53.3052 21.1032V20.8481C52.9911 20.883 52.6905 20.8928 52.4025 20.9547C52.0798 21.024 52.0358 21.3689 51.8556 21.581C51.8395 21.5719 51.8234 21.5628 51.8074 21.5536V20.511H56.0479V21.551C56.0315 21.5608 56.0152 21.5706 55.9989 21.5804C55.8238 21.3642 55.7693 21.0274 55.4524 20.9551C55.1705 20.8909 54.8744 20.8822 54.5523 20.8453V21.0902C54.5523 21.8033 54.5521 22.5164 54.5524 23.2296C54.5526 23.5963 54.701 23.7912 55.0682 23.9122C55.1608 23.9427 55.2518 23.9778 55.3435 24.0108C55.3365 24.0297 55.3296 24.0487 55.3226 24.0676Z" fill="white"/>
<path fill-rule="evenodd" clip-rule="evenodd" d="M48.2148 21.6941C48.1703 21.6223 48.128 21.5492 48.0809 21.479C47.7786 21.028 47.3589 20.7866 46.7819 20.8638C46.2334 20.9373 45.9222 21.2757 45.761 21.7495C45.4789 22.5783 45.9091 23.384 46.7379 23.5977C47.3322 23.751 47.9165 23.5456 48.261 23.0627C48.2913 23.0202 48.3244 22.9795 48.3562 22.9379C48.3711 22.9445 48.386 22.9512 48.401 22.9577C48.3661 23.0438 48.3406 23.1347 48.2949 23.2153C48.0204 23.6993 47.565 23.9433 47.0143 24.0362C46.2594 24.1637 45.5619 24.0338 44.9652 23.556C44.0875 22.8534 44.0975 21.6624 44.9944 20.9828C45.6975 20.45 46.4949 20.3806 47.3344 20.6258C47.5745 20.696 47.8003 20.8038 48.0637 20.7207C48.103 20.7083 48.2084 20.7591 48.2115 20.7874C48.2434 21.0855 48.2607 21.3849 48.2821 21.6841C48.2596 21.6874 48.2372 21.6908 48.2148 21.6941Z" fill="white"/>
<path fill-rule="evenodd" clip-rule="evenodd" d="M13.9096 20.5067H16.7167C16.723 20.5185 16.7292 20.5304 16.7354 20.5422C16.6824 20.5707 16.6324 20.6077 16.5757 20.6264C16.0536 20.7991 15.9521 20.9322 15.9522 21.4539C15.9522 22.0388 15.9522 22.6237 15.9521 23.2085C15.9521 23.6068 16.0967 23.7938 16.5017 23.9217C16.5688 23.9428 16.6349 23.9668 16.6998 23.9932C16.7143 23.9992 16.7217 24.0205 16.7511 24.0594H13.9412C13.935 24.0487 13.9288 24.0382 13.9227 24.0275C13.9828 23.9987 14.0402 23.9625 14.1034 23.9422C14.5873 23.7866 14.7059 23.6336 14.7059 23.1555C14.7059 22.5524 14.7061 21.9492 14.7058 21.3461C14.7056 20.9663 14.5624 20.78 14.1784 20.6558C14.1056 20.6323 14.0334 20.6066 13.9624 20.5783C13.9485 20.5729 13.9417 20.5515 13.9096 20.5067Z" fill="white"/>
<path fill-rule="evenodd" clip-rule="evenodd" d="M51.199 12.6242V14.5297C50.3005 14.4762 49.4116 14.4235 48.4552 14.3667C48.5779 14.2253 48.6648 14.0941 48.7835 13.9978C48.883 13.9171 49.0139 13.8595 49.1408 13.8227C49.5773 13.6961 49.7325 13.4519 49.6956 12.9644C49.6687 12.6077 49.695 12.5506 50.0798 12.5492C50.45 12.5479 50.8205 12.5967 51.199 12.6242Z" fill="white"/>
<path fill-rule="evenodd" clip-rule="evenodd" d="M56.449 16.3663C55.699 15.9284 54.922 15.5539 54.1101 15.2427C54.0657 15.2257 54.0152 15.1585 54.0145 15.1142C54.0074 14.6651 54.0102 14.2159 54.0102 13.731C55.1226 14.3883 55.9088 15.2736 56.449 16.3663Z" fill="white"/>
</svg>
