<svg width="56" height="23" viewBox="0 0 56 23" fill="none" xmlns="http://www.w3.org/2000/svg"  >

<path d="M39.3469 12.4115V22.8169H37.237L32.6784 16.0556V22.8169H30.6569V13.3844L30.1949 12.4115H32.8084L37.3256 19.267V12.4115H39.3469Z" fill="#C29739"/>
<path d="M18.3372 22.9968C19.0333 23.0011 19.6756 22.8728 20.2654 22.615C20.8561 22.3566 21.3649 21.9976 21.7945 21.5403C22.2234 21.0828 22.5598 20.5405 22.8038 19.9142C22.9796 19.4633 23.0928 18.9881 23.1442 18.4871C23.1646 18.2927 23.1986 17.5082 23.1618 17.0348H18.3571L17.5016 18.9108H20.9296C20.7975 19.5028 20.4981 19.9915 20.0332 20.3591C19.5672 20.7277 19.0101 20.91 18.3612 20.9072C17.9437 20.9043 17.554 20.8156 17.1931 20.6408C16.8319 20.4657 16.5181 20.23 16.2506 19.9319C15.9827 19.6334 15.7737 19.2841 15.6227 18.8828C15.4711 18.4815 15.3969 18.0534 15.3992 17.5985C15.4013 17.1442 15.4799 16.7159 15.6345 16.3167C15.7894 15.9175 16.002 15.5697 16.2729 15.2743C16.5436 14.9786 16.8576 14.7487 17.2155 14.5823C17.5733 14.4167 17.9607 14.3354 18.3786 14.3362C18.9445 14.34 19.4443 14.4757 19.8793 14.7449C20.314 15.0144 20.6504 15.4013 20.8893 15.9073L22.7864 14.9396C22.3911 14.0969 21.8079 13.4358 21.0355 12.9572C20.2632 12.4782 19.3855 12.237 18.4027 12.2304C17.7066 12.2265 17.0475 12.364 16.4254 12.6429C15.8027 12.9217 15.2604 13.303 14.7993 13.7909C14.3384 14.2775 13.9711 14.8471 13.6994 15.4978C13.4268 16.1482 13.2896 16.8452 13.2858 17.5855C13.2817 18.3275 13.4114 19.0256 13.6723 19.6802C13.9344 20.3342 14.2903 20.9072 14.7428 21.3981C15.1945 21.8899 15.7285 22.2789 16.3439 22.5643C16.9581 22.8486 17.6234 22.9927 18.3372 22.9968Z" fill="#C29739"/>
<path d="M2.57352 12.4107H0L0.485596 13.4872V21.743L0 22.8184H5.90649L6.44222 20.7817H2.57352V12.4107Z" fill="#C29739"/>
<path d="M7.15485 22.8184H12.9124V20.7828H9.25088V18.5002H12.0817L12.5945 16.5431H9.25088V14.4382H12.9124V12.4107H7.15485V22.8184Z" fill="#C29739"/>
<path d="M23.8931 22.8184H29.6505V20.7828H25.9886V18.5002H28.8205L29.3323 16.5431H25.9886V14.4382H29.6505V12.4107H23.8931V22.8184Z" fill="#C29739"/>
<path d="M27.581 10.7683C28.2769 10.7726 28.9198 10.6445 29.5101 10.3859C30.1004 10.1274 30.6089 9.76886 31.0382 9.31138C31.4678 8.85484 31.8038 8.31191 32.0482 7.68583C32.2238 7.23543 32.3373 6.75925 32.3885 6.2588C32.4081 6.06448 32.4435 5.27972 32.4057 4.80606H27.6015L26.746 6.68146H30.174C30.0415 7.27394 29.7423 7.76183 29.2773 8.13023C28.8112 8.49849 28.2539 8.68025 27.6051 8.67695C27.1876 8.67469 26.7986 8.58629 26.4373 8.41145C26.0762 8.23658 25.7617 7.9999 25.4948 7.70227C25.227 7.40447 25.0182 7.05451 24.8663 6.65348C24.7154 6.25222 24.6412 5.82398 24.6432 5.36903C24.6458 4.91442 24.7241 4.48686 24.8787 4.0877C25.0336 3.68786 25.2464 3.34027 25.5171 3.04482C25.7873 2.74922 26.1011 2.5197 26.4596 2.35344C26.8172 2.18725 27.2046 2.10569 27.6229 2.10696C28.1889 2.11033 28.6886 2.24625 29.1233 2.51573C29.5586 2.78488 29.8946 3.1719 30.1329 3.67792L32.0304 2.70921C31.6351 1.86747 31.0523 1.207 30.2796 0.727889C29.5071 0.248992 28.6295 0.00673771 27.647 0.000912666C26.9511 -0.00318623 26.2917 0.134874 25.6694 0.413153C25.0464 0.691215 24.5046 1.07369 24.0436 1.56151C23.5824 2.04796 23.215 2.61744 22.9431 3.26839C22.6707 3.91933 22.5339 4.61571 22.5299 5.35682C22.526 6.09801 22.6553 6.7964 22.9162 7.45014C23.178 8.10446 23.5348 8.67695 23.9864 9.16907C24.4381 9.66025 24.9727 10.0492 25.5879 10.3342C26.202 10.6208 26.8668 10.765 27.581 10.7683Z" fill="#C29739"/>
<path d="M2.57352 0.183638H0L0.485596 1.25943V9.51499L0 10.5905H5.90649L6.44222 8.55301H2.57352V0.183638Z" fill="#C29739"/>
<path d="M7.15485 10.5905H12.9124V8.55411H9.25088V6.27195H12.0817L12.5945 4.31531H9.25088V2.21045H12.9124V0.183638H7.15485V10.5905Z" fill="#C29739"/>
<path d="M41.8785 10.5905H47.6349V8.55411H43.9745V6.27195H46.8051L47.3169 4.31531H43.9745V2.21045H47.6349V0.183638H41.8785V10.5905Z" fill="#C29739"/>
<path d="M19.3664 0.183534H16.3895L17.0191 1.51034L13.5808 10.5907H15.7225L16.4523 8.5605H20.3253L21.0756 10.5907H23.2589L19.3664 0.183534ZM17.1679 6.57023L18.4251 3.07337L19.6327 6.57023H17.1679Z" fill="#C29739"/>
<path d="M53.105 3.04479V7.72498H54.1834V6.14289H55.2972L55.5663 5.11376H54.1834V4.10512H55.7651V3.04479H53.105Z" fill="#C29739"/>
<path d="M50.4391 2.95212C49.1822 2.95212 48.1604 4.04336 48.1604 5.38546C48.1604 6.72712 49.1822 7.81836 50.4391 7.81836C51.6955 7.81836 52.7167 6.72712 52.7167 5.38546C52.7167 4.04336 51.6945 2.95212 50.4391 2.95212ZM50.4391 6.68922C49.7668 6.68922 49.2202 6.10382 49.2202 5.38546C49.2202 4.66633 49.7668 4.08128 50.4391 4.08128C51.1109 4.08128 51.6579 4.66633 51.6579 5.38546C51.6579 6.10382 51.1109 6.68922 50.4391 6.68922Z" fill="#C29739"/>
<path d="M37.0501 10.7706C36.4373 10.7706 35.8895 10.6688 35.4069 10.4658C34.9242 10.2633 34.5152 9.97348 34.181 9.59722C33.8466 9.22107 33.5895 8.76578 33.4088 8.23053C33.2276 7.69663 33.1368 7.1023 33.1368 6.44917V0.183557H35.2535V6.33084C35.2535 7.03413 35.4069 7.58816 35.7129 7.99434C36.0198 8.40082 36.466 8.60306 37.0501 8.60306C37.6361 8.60306 38.0815 8.40082 38.3876 7.99434C38.6943 7.58816 38.8482 7.03413 38.8482 6.33084V0.183557H40.9644V6.44949C40.9644 7.1034 40.8736 7.69689 40.6927 8.23146C40.5119 8.76578 40.2539 9.22107 39.9204 9.59824C39.5862 9.9745 39.1771 10.2633 38.6943 10.4669C38.211 10.6688 37.6632 10.7706 37.0501 10.7706Z" fill="#C29739"/>
<path d="M53.2551 16.6467L51.9368 16.3765C51.3443 16.2551 51.018 15.9008 51.018 15.3777C51.018 14.6655 51.7027 14.2397 52.3654 14.2397C52.5908 14.2397 53.7129 14.3016 53.9445 15.4948L55.76 14.5506C55.4926 13.7012 54.6901 12.2294 52.3525 12.2294C50.4663 12.2294 48.932 13.707 48.932 15.5212C48.932 17.059 49.8971 18.1882 51.5138 18.5396L52.8327 18.8227C53.4839 18.9622 53.8723 19.3567 53.8723 19.8786C53.8723 20.5539 53.3356 20.9641 52.4724 20.9744C51.4238 20.9856 50.5772 20.1551 50.4467 19.338L48.7012 20.3759C49.1015 21.7657 50.3353 23 52.4587 23C53.7952 23 54.6208 22.4482 55.0775 21.9864C55.6632 21.3953 55.9992 20.5798 55.9992 19.7513C55.9973 18.1861 54.9466 16.9964 53.2551 16.6467Z" fill="#C29739"/>
<path d="M48.1216 15.5884C47.8621 14.9551 47.5079 14.4065 47.0598 13.9416C46.6097 13.4769 46.0842 13.1114 45.4813 12.8438C44.8789 12.5753 44.0216 12.409 43.563 12.409H40.2618V22.8158H43.5569C44.234 22.8158 44.8736 22.6848 45.4763 22.4191C46.0791 22.1526 46.6053 21.7873 47.0554 21.3233C47.5054 20.8586 47.8611 20.3113 48.1202 19.6786C48.381 19.0462 48.51 18.3656 48.511 17.6343C48.51 16.9029 48.3814 16.2204 48.1216 15.5884ZM46.1457 18.8482C45.9966 19.224 45.7953 19.5495 45.5406 19.8261C45.2851 20.1027 44.9817 20.3218 44.6283 20.4844C44.2763 20.6472 43.9006 20.7288 43.5031 20.7288H42.3483V14.5325H43.5062C43.9051 14.5325 44.2795 14.6151 44.6325 14.7784C44.9845 14.941 45.2877 15.161 45.5432 15.4379C45.7987 15.7156 45.999 16.0426 46.1477 16.4241C46.296 16.8047 46.3708 17.2082 46.3698 17.6322C46.3688 18.0681 46.2941 18.4723 46.1457 18.8482Z" fill="#C29739"/>
</svg>
