<svg width="57" height="19" viewBox="0 0 57 19" fill="none" xmlns="http://www.w3.org/2000/svg">
<path d="M0.000744657 3.01574C0.000744657 3.13493 -0.0010448 3.25421 0.000924245 3.37331C0.0436166 5.89105 0.0790594 8.4088 0.13643 10.9262C0.147618 11.4182 0.249829 11.8998 0.49757 12.3457C0.75623 12.8115 1.12865 13.1675 1.48853 13.5335C2.48639 14.5486 3.49293 15.555 4.51262 16.5467C5.04659 17.0662 5.61144 17.5522 6.17002 18.044C6.47558 18.313 6.84979 18.4727 7.23115 18.5555C7.59471 18.6343 7.97885 18.6257 8.35422 18.6308C9.85213 18.651 11.3499 18.6647 12.8479 18.6747C13.7571 18.6807 14.6663 18.6759 15.6206 18.6759C15.5126 18.5673 15.4154 18.4732 15.3219 18.3751C14.7938 17.821 14.265 17.2676 13.7394 16.7109C13.1515 16.0884 12.5677 15.4618 11.9799 14.8395C11.8708 14.7239 11.823 14.5999 11.8218 14.4324C11.8077 12.4943 11.7855 10.5562 11.7646 8.61807C11.7639 8.55423 11.7548 8.49048 11.7455 8.37766C11.6635 8.45278 11.6156 8.49463 11.5698 8.5388C10.6103 9.46616 9.65048 10.3934 8.69227 11.3224C8.61476 11.3974 8.54415 11.4159 8.46145 11.3367C8.40721 11.2848 8.34832 11.2379 8.2956 11.1846C7.47773 10.3567 6.66112 9.52751 5.8428 8.70012C5.67203 8.52743 5.49562 8.36066 5.32181 8.19121L5.25504 8.22216C5.25549 10.5573 5.35072 12.8921 5.35367 15.2317C5.28288 15.2062 5.24018 15.1782 5.20456 15.1426C4.95512 14.8931 4.70523 14.6441 4.4591 14.3912C3.93516 13.8526 3.41157 13.3137 2.89389 12.7691C2.8384 12.7105 2.79625 12.6127 2.79338 12.5314C2.7779 12.0974 2.77665 11.663 2.77083 11.2287C2.74675 9.41313 2.72089 7.59758 2.70218 5.78184C2.70066 5.63096 2.65806 5.52406 2.55379 5.42234C1.80779 4.69381 1.06564 3.96094 0.321788 3.22991C0.234793 3.14445 0.144664 3.06231 0.0559677 2.97878C0.0375303 2.99107 0.019182 3.00336 0.000744657 3.01574" fill="url(#paint0_linear_315_399)"/>
<path d="M9.33796 0.969221C6.92426 0.984651 4.51057 0.978186 2.09679 0.981512C2.04264 0.981605 1.9885 0.994724 1.88861 1.00766C4.04982 3.32905 6.27332 5.51934 8.47614 7.71822C9.58999 6.58326 10.6897 5.4627 11.7934 4.33809C11.8471 4.36285 11.8721 4.36691 11.8865 4.38188C12.6531 5.17582 13.4201 5.96948 14.182 6.76814C14.2335 6.82219 14.2672 6.91329 14.274 6.99044C14.2934 7.21024 14.3001 7.43171 14.3022 7.65262C14.3204 9.59834 14.3375 11.5442 14.3512 13.4899C14.3523 13.6402 14.379 13.7594 14.5256 13.8255C14.5718 13.8462 14.6125 13.8843 14.6495 13.9213C15.258 14.5283 15.8643 15.1376 16.474 15.7434C16.6234 15.8917 16.7831 16.029 16.9626 16.194C16.9626 16.0873 16.9633 15.9917 16.9625 15.8961C16.9513 14.4156 16.9429 12.9351 16.9273 11.4546C16.9156 10.3566 16.902 9.25843 16.8743 8.1607C16.8598 7.58573 16.607 7.10611 16.2235 6.70263C15.8772 6.33814 15.5134 5.99129 15.1612 5.63262C13.9411 4.3902 12.7231 3.14547 11.5035 1.9024C10.9088 1.29639 10.2102 0.969131 9.35926 0.969131C9.3521 0.969131 9.34512 0.969129 9.33796 0.969221" fill="url(#paint1_linear_315_399)"/>
<path d="M18.1032 0.361946C18.0933 2.73139 18.1093 5.10056 18.137 7.51611C18.5656 7.3085 18.9198 7.12021 19.2876 6.96628C19.4611 6.89366 19.4945 6.79544 19.4919 6.62119C19.481 5.89635 19.4831 5.17125 19.4833 4.44632C19.4833 4.3227 19.4967 4.19917 19.5039 4.07545L19.5682 4.04912C20.1728 4.76822 20.7773 5.48742 21.3905 6.21696C22.0431 5.49287 22.587 4.71103 23.2401 4.02389C23.2691 4.08349 23.2758 4.12682 23.276 4.17006C23.2796 5.01685 23.2802 5.86365 23.2895 6.71035C23.2903 6.78214 23.3296 6.89227 23.3821 6.91851C23.7716 7.11318 24.1689 7.29104 24.5834 7.4835V0.355664L24.5175 0.339496C23.4478 1.58903 22.4682 2.91923 21.3761 4.17477C20.2887 2.86961 19.2322 1.60151 18.1756 0.333397L18.1032 0.361946Z" fill="url(#paint2_linear_315_399)"/>
<path d="M32.6831 0.888551C32.4803 0.888736 32.2774 0.908509 32.0448 0.92089C32.0911 1.03869 32.1132 1.12674 32.1573 1.20075C32.3074 1.45197 32.343 1.72416 32.3312 2.01262C32.3177 2.34773 32.313 2.68349 32.3133 3.01888C32.3142 4.16263 32.3078 5.30656 32.3292 6.44994C32.3354 6.78709 32.2496 7.07637 32.0964 7.359C32.0724 7.40308 32.0525 7.44946 32.013 7.5316C32.1103 7.55109 32.1826 7.57761 32.255 7.57816C33.1505 7.58472 34.0462 7.5813 34.9416 7.59396C35.3668 7.60006 35.7643 7.50545 36.1318 7.29442C36.6437 7.00061 37.0139 6.5791 37.147 5.97549C37.2539 5.49015 37.1894 5.01986 36.9664 4.57914C36.8413 4.33189 36.6955 4.09592 36.5539 3.84572C36.7531 3.53851 36.9082 3.05917 36.9094 2.76665C36.9133 1.66577 36.0008 0.955815 35.0806 0.90389C34.7317 0.88421 34.382 0.878572 34.032 0.878572C33.5824 0.878572 33.1326 0.887904 32.6831 0.888551V0.888551ZM33.7106 3.35224V2.09319C34.1789 2.09319 34.6288 2.07369 35.0762 2.1003C35.3615 2.1173 35.545 2.37536 35.5475 2.6713C35.5504 3.0102 35.3438 3.32212 35.0371 3.3443C34.8638 3.35686 34.6898 3.36056 34.5139 3.36056C34.2514 3.36056 33.9849 3.35224 33.7106 3.35224ZM33.7946 6.36281C33.7672 6.36262 33.7398 6.34793 33.7074 6.3386V4.60584C34.2114 4.60584 34.6923 4.56999 35.1651 4.61822C35.4947 4.65176 35.7438 4.88654 35.8238 5.24142C35.9013 5.58522 35.8705 5.92394 35.5791 6.15335C35.4406 6.26228 35.2504 6.34544 35.0787 6.35662C34.905 6.36808 34.7309 6.37159 34.5565 6.37159C34.3028 6.37159 34.0486 6.3641 33.7946 6.36281" fill="url(#paint3_linear_315_399)"/>
<path d="M49.9273 0.859743C48.3432 0.86233 46.7592 0.861131 45.1752 0.863626C45.1099 0.86381 45.0448 0.891805 44.9583 0.911763C45.0096 1.03594 45.0551 1.12279 45.0816 1.21546C45.1286 1.37974 45.1998 1.54771 45.1991 1.71393C45.1928 3.37712 45.1756 5.0403 45.1545 6.7033C45.1529 6.83487 45.1108 6.97004 45.0663 7.09551C45.0122 7.24815 44.9355 7.39229 44.8541 7.5719H50.0516C50.0454 7.0046 50.1297 6.45596 50.0527 5.87702C49.9409 5.92839 49.8763 5.966 49.8072 5.98827C49.6254 6.04675 49.4423 6.14238 49.2583 6.1457C48.4301 6.16067 47.6012 6.14912 46.7726 6.14533C46.6938 6.14496 46.615 6.13157 46.5516 6.12566V4.90504H49.1179V3.49261H46.5857V2.26737C46.6424 2.25794 46.6711 2.24917 46.7 2.24908C47.573 2.24196 48.4462 2.23189 49.3194 2.23438C49.4311 2.23475 49.5458 2.29324 49.6535 2.33897C49.7989 2.40079 49.9388 2.47627 50.1225 2.56608C50.1343 2.0265 50.1482 1.53293 50.1545 1.03917C50.1564 0.888664 50.0562 0.859743 49.9283 0.859743C49.928 0.859743 49.9276 0.859743 49.9273 0.859743" fill="url(#paint4_linear_315_399)"/>
<path d="M25.2212 4.20632C25.1753 6.00699 26.6735 7.55552 28.3858 7.57853C30.3609 7.60495 31.6989 6.05079 31.7417 4.32348C31.7912 2.3286 30.2666 0.91534 28.5468 0.882171C28.5257 0.881709 28.5044 0.881525 28.4834 0.881525C26.6422 0.881432 25.195 2.43596 25.2212 4.20632ZM26.575 4.26647C26.5697 3.09131 27.4901 2.22817 28.5703 2.27011C29.5806 2.30957 30.3817 3.17207 30.3779 4.27017C30.3743 5.31487 29.453 6.24463 28.462 6.1891C28.4508 6.18938 28.4396 6.18947 28.4284 6.18947C27.3964 6.18957 26.5794 5.25703 26.575 4.26647" fill="url(#paint5_linear_315_399)"/>
<path d="M34.6161 8.86463C34.6509 8.94825 34.6675 9.00535 34.6964 9.0546C34.8549 9.32494 34.8888 9.61672 34.8868 9.92947C34.8775 11.3645 34.8786 12.7998 34.8865 14.2347C34.8885 14.5829 34.8864 14.92 34.6716 15.2142C34.6426 15.2539 34.6341 15.3095 34.6167 15.3561C34.7784 15.4511 39.2182 15.4681 39.679 15.3766C39.7259 14.8692 39.7589 14.3571 39.7077 13.8027C39.5631 13.8676 39.4731 13.9238 39.3754 13.9487C39.1703 14.0009 38.9619 14.0696 38.7539 14.0736C37.9915 14.0881 37.2285 14.0791 36.4658 14.0789H36.198V12.8389H38.7437V11.4334H36.2184V10.1765H36.4721C37.2644 10.1763 38.0567 10.1691 38.8489 10.1812C39.0117 10.1837 39.1771 10.2465 39.3344 10.3022C39.4614 10.3472 39.578 10.4232 39.7416 10.5073V8.86463H34.6161Z" fill="url(#paint6_linear_315_399)"/>
<path d="M23.0432 8.8798C23.0719 8.95843 23.0907 9.0062 23.1069 9.0548C23.1753 9.26084 23.2985 9.46632 23.3019 9.67374C23.3283 11.2834 23.3316 12.8935 23.342 14.5034C23.3435 14.7421 23.314 14.9708 23.1766 15.1751C23.1345 15.2379 23.1192 15.3199 23.0824 15.4178H28.1526V13.8258C27.9763 13.9007 27.8306 13.9693 27.6802 14.0243C27.585 14.059 27.483 14.0933 27.3838 14.0938C26.5473 14.0984 25.7106 14.0953 24.874 14.0936C24.803 14.0935 24.7319 14.0867 24.6531 14.0827V12.841H27.1791V11.4466H24.6541V10.1968C24.6965 10.1894 24.7245 10.1802 24.7525 10.1802C25.6409 10.179 26.5293 10.1775 27.4177 10.1813C27.4873 10.1814 27.5601 10.2112 27.6251 10.2414C27.795 10.3206 27.9614 10.4076 28.1534 10.5038V8.8798H23.0432Z" fill="url(#paint7_linear_315_399)"/>
<path d="M46.7061 8.83944C46.5515 8.83954 46.3969 8.83954 46.2424 8.83944C46.1146 8.83944 45.9868 8.85303 45.8306 8.8618C45.8737 8.96344 45.8932 9.02857 45.9267 9.08475C46.0822 9.34567 46.1342 9.62322 46.1284 9.93237C46.0995 11.4965 46.0896 13.061 46.064 14.6251C46.0619 14.7537 46.0004 14.8841 45.9528 15.0082C45.9042 15.1355 45.8392 15.256 45.778 15.3864C46.6399 15.3864 47.4587 15.391 48.2776 15.3836C48.52 15.3815 48.7668 15.3702 49.0035 15.3208C49.7558 15.1636 50.3626 14.7382 50.7687 14.0841C51.1899 13.4056 51.2809 12.6186 51.2571 11.8202C51.2382 11.1826 51.1036 10.5836 50.7279 10.0611C50.1752 9.29254 49.4459 8.86125 48.5079 8.84757C48.0079 8.84037 47.5078 8.83935 47.0078 8.83935C46.9072 8.83935 46.8067 8.83944 46.7061 8.83944V8.83944ZM47.4312 10.1914C47.9204 10.1914 48.3721 10.1286 48.8 10.2061C49.4299 10.3201 49.7437 10.8285 49.8748 11.4308C49.9871 11.9468 49.9662 12.4751 49.8087 12.9877C49.6074 13.6434 49.0756 14.1168 48.3745 14.0775C48.0596 14.06 47.743 14.0746 47.4312 14.0746V10.1914Z" fill="url(#paint8_linear_315_399)"/>
<path d="M43.5975 8.86801C43.6373 8.95533 43.6585 9.00938 43.6856 9.06029C43.8252 9.32361 43.9169 9.59183 43.9055 9.90495C43.8846 10.4765 43.8973 11.0494 43.8927 11.6217C43.8915 11.7778 43.8786 11.9337 43.8681 12.1487C42.6675 11.0899 41.5934 9.96168 40.4123 8.94516C40.3784 9.05123 40.369 9.13965 40.3685 9.22798C40.3601 10.8533 40.3569 12.4788 40.3423 14.1041C40.3387 14.5026 40.36 14.9139 40.1043 15.2616C40.0846 15.2884 40.0829 15.3291 40.0654 15.3889H41.9161C41.8693 15.2828 41.8471 15.2094 41.808 15.1473C41.6562 14.9071 41.6186 14.6462 41.6293 14.3632C41.6518 13.7841 41.654 13.2042 41.6686 12.6248C41.672 12.4844 41.6912 12.3444 41.7031 12.2045C41.7202 12.1959 41.7371 12.1873 41.7541 12.1788C42.8595 13.2394 43.9648 14.3 45.0701 15.3605C45.0907 15.3496 45.1116 15.3387 45.1324 15.3279C45.1438 15.2502 45.1648 15.1726 45.1657 15.0946C45.1846 13.3322 45.1981 11.5697 45.2231 9.8072C45.2257 9.6322 45.2885 9.45536 45.339 9.28443C45.3784 9.15111 45.4425 9.02555 45.5073 8.86801H43.5975Z" fill="url(#paint9_linear_315_399)"/>
<path d="M30.9366 8.94001C29.4906 9.25064 28.2659 10.874 28.4687 12.3996C28.6172 13.5173 29.097 14.3998 30.07 14.9536C30.3259 15.0993 30.6019 15.2229 30.8832 15.3016C31.1574 15.3784 31.4511 15.4203 31.7347 15.4135C32.2481 15.401 32.7311 15.2257 33.209 15.0391C33.2996 15.0035 33.4266 15.0096 33.5184 15.0458C33.7566 15.1398 33.9848 15.2611 34.2515 15.3881V12.182H32.7259C32.7259 12.2257 32.7201 12.2446 32.7268 12.2548C32.9727 12.6319 32.998 13.0543 32.9482 13.485C32.9368 13.5834 32.8753 13.7108 32.798 13.7605C32.119 14.197 31.4247 14.2728 30.7116 13.8293C29.8124 13.27 29.5973 12.3391 29.8821 11.4561C30.2516 10.3101 31.5809 9.85379 32.5183 10.3725C32.7747 10.5143 33.0054 10.7058 33.2648 10.8863C33.5726 10.6397 33.891 10.3846 34.1999 10.1372C34.1874 10.0909 34.1877 10.073 34.1791 10.0626C33.5052 9.24223 32.6826 8.8502 31.7443 8.8502C31.4837 8.85011 31.2144 8.88032 30.9366 8.94001" fill="url(#paint10_linear_315_399)"/>
<path d="M53.1267 8.98975C52.5673 9.16272 52.1215 9.48915 51.9712 10.1077C51.9096 10.361 51.885 10.632 51.8929 10.8934C51.9065 11.3511 52.0921 11.7472 52.4635 12.0049C52.7557 12.2077 53.0736 12.3816 53.3996 12.5198C53.8965 12.7302 54.4156 12.8851 54.9137 13.0932C55.0657 13.1565 55.2255 13.2919 55.3015 13.4384C55.4657 13.7553 55.2149 14.0836 54.8034 14.1298C53.9821 14.2219 53.2061 14.0455 52.4584 13.7063C52.2672 13.6197 52.0786 13.527 51.8868 13.4362C51.8047 13.6856 51.8122 15.2764 51.8926 15.4028C52.0978 15.2874 52.3043 15.1714 52.5138 15.0537C53.0993 15.2431 53.6914 15.3881 54.3109 15.3981C54.8271 15.4064 55.3254 15.3649 55.7923 15.1025C56.5339 14.6857 56.8889 13.8509 56.5893 12.9825C56.4115 12.4675 56.0462 12.1271 55.5875 11.9059C55.1812 11.71 54.7466 11.5776 54.3278 11.4087C54.0534 11.2981 53.7805 11.1809 53.5144 11.0508C53.2965 10.9441 53.21 10.7366 53.2285 10.5018C53.2462 10.2784 53.4269 10.1924 53.6092 10.1365C53.7282 10.1001 53.8534 10.0742 53.977 10.0661C54.5185 10.0309 55.0368 10.1428 55.5316 10.3638C55.82 10.4925 56.1004 10.64 56.3843 10.7791C56.4785 10.6046 56.4969 9.05452 56.4025 8.87121C56.3635 8.88489 56.3163 8.88969 56.2836 8.91473C55.9494 9.17186 55.6065 9.15274 55.2201 9.0256C54.8526 8.90475 54.4792 8.84118 54.1047 8.84118C53.7786 8.84118 53.4517 8.88932 53.1267 8.98975" fill="url(#paint11_linear_315_399)"/>
<path d="M39.777 0.910822C39.8366 1.03666 39.871 1.12555 39.9183 1.20639C40.0401 1.41428 40.0885 1.63233 40.0857 1.8793C40.0652 3.68579 40.0554 5.49228 40.0437 7.29886C40.0432 7.38672 40.0579 7.47459 40.0657 7.56514C40.1305 7.57687 40.173 7.59147 40.2157 7.59147C41.6067 7.59267 42.9977 7.59147 44.3888 7.59387C44.541 7.59424 44.6024 7.5255 44.6023 7.3737C44.6019 6.93141 44.6068 6.48921 44.6054 6.04683C44.6052 5.9997 44.5775 5.95277 44.558 5.89132C44.4946 5.9257 44.4519 5.95443 44.4054 5.97319C44.222 6.04756 44.0391 6.17525 43.8529 6.18116C43.1286 6.20408 42.403 6.18837 41.678 6.18597C41.5986 6.18569 41.5192 6.17895 41.4119 6.17396C41.4119 6.08055 41.4117 6.00635 41.4119 5.93225C41.4161 4.59744 41.4148 3.26262 41.4306 1.92799C41.4331 1.71456 41.5075 1.50076 41.5597 1.29001C41.5897 1.16879 41.6414 1.05329 41.6922 0.910822H39.777Z" fill="url(#paint12_linear_315_399)"/>
<path d="M19.3894 8.2691C19.0273 8.4403 18.6668 8.61502 18.3042 8.78512C18.1862 8.84055 18.1537 8.92814 18.1547 9.05833C18.1728 11.1176 18.1862 13.177 18.2024 15.2363C18.203 15.2942 18.2225 15.3519 18.2339 15.4138C18.2995 15.4208 18.3502 15.4305 18.4008 15.4306C19.2889 15.4326 20.177 15.4342 21.0652 15.4344C21.5165 15.4345 21.9681 15.4319 22.4194 15.4299C22.6796 15.4287 22.6897 15.4168 22.6894 15.1413C22.6891 14.8513 22.6898 14.5615 22.6901 14.2716C22.6901 14.1369 22.6901 14.0022 22.6901 13.826C22.5802 13.8633 22.5024 13.8769 22.4374 13.914C22.1743 14.0643 21.9041 14.1481 21.5941 14.1384C20.9952 14.1195 20.3953 14.1331 19.7958 14.1332H19.5046V8.26799C19.4581 8.26799 19.4313 8.26513 19.4134 8.26513C19.4031 8.26513 19.3958 8.26605 19.3894 8.2691Z" fill="url(#paint13_linear_315_399)"/>
<path d="M37.5147 0.916992C37.5796 1.04754 37.6277 1.12497 37.6579 1.20923C37.716 1.37037 37.8086 1.53529 37.8091 1.69892C37.8148 3.3476 37.808 4.99637 37.7935 6.64505C37.792 6.81275 37.7274 6.98386 37.672 7.14611C37.6271 7.27721 37.5518 7.39724 37.49 7.52225C37.4984 7.54405 37.507 7.56595 37.5155 7.58775C38.1403 7.59856 38.7651 7.59819 39.4308 7.58858C39.3842 7.47549 39.3693 7.40805 39.3332 7.35603C39.1616 7.10878 39.1219 6.83548 39.1243 6.53575C39.1362 5.08554 39.1415 3.63504 39.1328 2.18482C39.1303 1.78392 39.1821 1.41213 39.404 1.07591C39.4276 1.04015 39.4365 0.994326 39.4661 0.916992H37.5147Z" fill="url(#paint14_linear_315_399)"/>
<path d="M0.202042 14.7171C0.237484 16.01 0.272928 17.3028 0.309266 18.6272C0.398678 18.6432 0.488807 18.6732 0.579114 18.6734C1.58458 18.6769 2.59014 18.676 3.59569 18.6751C3.65423 18.6751 3.71276 18.6606 3.77129 18.6616C3.86903 18.6634 3.96668 18.6718 4.06432 18.6782C4.10174 18.6807 4.13888 18.686 4.17611 18.6901C4.18345 18.6762 4.19088 18.6623 4.19822 18.6484C2.88388 17.3269 1.56963 16.0054 0.255474 14.6839C0.237574 14.6949 0.219853 14.7061 0.202042 14.7171" fill="url(#paint15_linear_315_399)"/>
<path d="M13.0696 0.979773C13.0557 1.00444 13.0416 1.02911 13.0278 1.05369C14.2915 2.34046 15.5553 3.62705 16.828 4.92297C16.9056 4.67231 16.8823 1.12335 16.812 0.979773H13.0696Z" fill="url(#paint16_linear_315_399)"/>
<path d="M18.2368 16.4273V18.6709C18.7165 18.6709 19.1597 18.6872 19.6008 18.6636C19.8019 18.6528 19.9837 18.5594 20.0906 18.3387C20.2275 18.0559 20.1488 17.7485 19.895 17.512C19.9196 17.4651 19.943 17.4117 19.9737 17.3632C20.1914 17.0186 20.0996 16.6779 19.7309 16.5293C19.5845 16.4703 19.4205 16.4385 19.2631 16.4317C19.1218 16.4257 18.9804 16.424 18.838 16.424C18.6403 16.424 18.4408 16.4273 18.2368 16.4273V16.4273ZM18.8444 17.288V16.9041C18.9808 16.9041 19.1197 16.8844 19.2485 16.9128C19.3085 16.926 19.3894 17.0335 19.3877 17.0962C19.386 17.1614 19.3055 17.2636 19.2427 17.2794C19.1945 17.2917 19.1442 17.2953 19.0911 17.2953C19.0155 17.2953 18.9341 17.288 18.8444 17.288V17.288ZM18.8532 17.8013C19.0124 17.8013 19.1593 17.785 19.2996 17.8093C19.3562 17.819 19.4261 17.9124 19.438 17.9777C19.4468 18.0273 19.3823 18.1329 19.3352 18.1437C19.1845 18.1785 19.0267 18.1808 18.8532 18.1974V17.8013Z" fill="url(#paint17_linear_315_399)"/>
<path d="M25.6011 16.4211V18.6582H26.1965V17.6906C26.2214 17.6798 26.2463 17.6688 26.2712 17.6579C26.3247 17.7232 26.384 17.7842 26.4306 17.8544C26.581 18.0809 26.7222 18.3138 26.877 18.5371C26.9188 18.5973 26.9921 18.6622 27.058 18.6714C27.2018 18.6917 27.3503 18.6776 27.5154 18.6776V16.4351H26.9147V17.3128C26.8903 17.3187 26.866 17.3246 26.8415 17.3304C26.7818 17.2581 26.7169 17.1899 26.6633 17.113C26.5295 16.9216 26.4042 16.7235 26.2676 16.5341C26.2321 16.4849 26.1697 16.4307 26.1158 16.4262C26.0422 16.4199 25.9682 16.4183 25.8932 16.4183C25.7981 16.4183 25.7012 16.4211 25.6011 16.4211Z" fill="url(#paint18_linear_315_399)"/>
<path d="M30.1059 16.4244C29.7004 16.4512 29.3554 16.6083 29.2001 17.0098C29.0357 17.4336 29.0721 17.8641 29.3478 18.2433C29.5536 18.5259 29.8649 18.6172 30.181 18.6658C30.8194 18.764 31.4373 18.2374 31.3331 17.557C31.024 17.4482 30.3869 17.4625 30.2064 17.5934C30.2164 17.679 30.2274 17.774 30.239 17.8728C30.3689 17.8888 30.4797 17.9022 30.6059 17.9178C30.4039 18.2042 30.0942 18.1925 29.9723 17.9101C29.8676 17.6675 29.8525 17.4113 29.946 17.1536C30.0056 16.9895 30.1216 16.8889 30.2794 16.9093C30.3882 16.9236 30.4901 17.0143 30.5888 17.0808C30.6412 17.1161 30.6771 17.209 30.7254 17.213C30.9127 17.2288 31.1021 17.2195 31.2866 17.2195C31.3158 16.9046 31.1471 16.6436 30.8881 16.5252C30.7029 16.4406 30.5136 16.4164 30.3208 16.4164C30.2496 16.4164 30.1779 16.4197 30.1059 16.4244Z" fill="url(#paint19_linear_315_399)"/>
<path d="M22.464 16.4438C22.3366 16.8236 22.2073 17.1863 22.0937 17.554C21.9825 17.9149 21.8369 18.268 21.78 18.658H22.3205C22.3767 18.5148 22.4285 18.3826 22.4776 18.2575H23.1224C23.1539 18.3542 23.1675 18.441 23.2091 18.5097C23.2482 18.5742 23.3133 18.6598 23.3737 18.666C23.5686 18.6859 23.7668 18.6734 24.0187 18.6734C23.7585 17.8986 23.5126 17.1662 23.27 16.4438H22.464ZM22.7479 17.2994C22.7669 17.2955 22.7859 17.2918 22.805 17.2879C22.8505 17.4114 22.8962 17.5348 22.9523 17.6865H22.6414C22.6793 17.5484 22.7136 17.4238 22.7479 17.2994Z" fill="url(#paint20_linear_315_399)"/>
<path d="M27.7142 4.14777C27.6837 4.18611 27.6785 4.29089 27.707 4.32655C27.945 4.62499 28.1935 4.91436 28.45 5.21973C28.498 5.19783 28.5325 5.19293 28.5492 5.1726C28.7771 4.89404 29.0077 4.61741 29.2233 4.32877C29.2557 4.28516 29.2412 4.16274 29.2037 4.11202C29.0118 3.85267 28.8067 3.60348 28.6022 3.35429C28.5679 3.31253 28.5135 3.28832 28.4567 3.24776C28.1984 3.55811 27.9513 3.84869 27.7142 4.14777" fill="url(#paint21_linear_315_399)"/>
<path d="M36.4641 16.4273V18.6709C36.9439 18.6709 37.3872 18.6872 37.8283 18.6636C38.0295 18.6528 38.2112 18.5594 38.3182 18.3387C38.4551 18.0559 38.3764 17.7485 38.1225 17.512C38.1471 17.4651 38.1706 17.4117 38.2013 17.3632C38.4189 17.0186 38.3272 16.6779 37.9584 16.5293C37.812 16.4703 37.6481 16.4385 37.4904 16.4317C37.3493 16.4257 37.2079 16.424 37.0655 16.424C36.8678 16.424 36.6682 16.4273 36.4641 16.4273V16.4273ZM37.0719 17.288V16.9041C37.2083 16.9041 37.3471 16.8844 37.4759 16.9128C37.5361 16.926 37.6168 17.0335 37.6152 17.0962C37.6136 17.1614 37.5331 17.2636 37.4701 17.2794C37.422 17.2917 37.3717 17.2953 37.3185 17.2953C37.2429 17.2953 37.1615 17.288 37.0719 17.288V17.288ZM37.0806 17.8013C37.2398 17.8013 37.3867 17.785 37.5271 17.8093C37.5837 17.819 37.6536 17.9124 37.6653 17.9777C37.6744 18.0273 37.6097 18.1329 37.5627 18.1437C37.412 18.1785 37.2542 18.1808 37.0806 18.1974V17.8013Z" fill="url(#paint22_linear_315_399)"/>
<path d="M43.8287 16.4211V18.6582H44.4241V17.6906C44.449 17.6798 44.4739 17.6688 44.4987 17.6579C44.5522 17.7232 44.6115 17.7842 44.658 17.8544C44.8085 18.0809 44.9497 18.3138 45.1045 18.5371C45.1463 18.5973 45.2196 18.6622 45.2855 18.6714C45.4294 18.6917 45.5778 18.6776 45.7428 18.6776V16.4351H45.1422V17.3128C45.1178 17.3187 45.0934 17.3246 45.0691 17.3304C45.0093 17.2581 44.9444 17.1899 44.8908 17.113C44.7569 16.9216 44.6317 16.7235 44.4952 16.5341C44.4596 16.4849 44.3971 16.4307 44.3434 16.4262C44.2698 16.4199 44.1958 16.4183 44.1207 16.4183C44.0256 16.4183 43.9287 16.4211 43.8287 16.4211" fill="url(#paint23_linear_315_399)"/>
<path d="M48.3334 16.4244C47.9279 16.4512 47.5829 16.6083 47.4276 17.0098C47.2633 17.4336 47.2995 17.8641 47.5754 18.2433C47.7811 18.5259 48.0924 18.6172 48.4084 18.6658C49.0469 18.764 49.6647 18.2374 49.5605 17.557C49.2515 17.4482 48.6145 17.4625 48.4339 17.5934C48.4439 17.679 48.455 17.774 48.4664 17.8728C48.5964 17.8888 48.7072 17.9022 48.8333 17.9178C48.6315 18.2042 48.3216 18.1925 48.1997 17.9101C48.095 17.6675 48.08 17.4113 48.1735 17.1536C48.233 16.9895 48.3491 16.8889 48.5069 16.9093C48.6155 16.9236 48.7176 17.0143 48.8162 17.0808C48.8686 17.1161 48.9045 17.209 48.9529 17.213C49.1402 17.2288 49.3296 17.2195 49.5141 17.2195C49.5433 16.9046 49.3746 16.6436 49.1156 16.5252C48.9304 16.4406 48.741 16.4164 48.5482 16.4164C48.4771 16.4164 48.4054 16.4197 48.3334 16.4244" fill="url(#paint24_linear_315_399)"/>
<path d="M40.6916 16.4438C40.5642 16.8236 40.4348 17.1863 40.3213 17.554C40.2099 17.9149 40.0645 18.268 40.0077 18.658H40.5482C40.6043 18.5148 40.6561 18.3826 40.7052 18.2575H41.3498C41.3814 18.3542 41.3949 18.441 41.4366 18.5097C41.4758 18.5742 41.5408 18.6598 41.6012 18.666C41.7962 18.6859 41.9943 18.6734 42.2461 18.6734C41.9859 17.8986 41.7401 17.1662 41.4975 16.4438H40.6916ZM40.9754 17.2994C40.9945 17.2955 41.0135 17.2918 41.0325 17.2879C41.0782 17.4114 41.1237 17.5348 41.1798 17.6865H40.8688C40.9069 17.5484 40.9412 17.4238 40.9754 17.2994Z" fill="url(#paint25_linear_315_399)"/>
<defs>
<linearGradient id="paint0_linear_315_399" x1="-0.669012" y1="17.9178" x2="16.0575" y2="4.82772" gradientUnits="userSpaceOnUse">
<stop stop-color="#BA9258"/>
<stop offset="0.987437" stop-color="#E4C482"/>
<stop offset="1" stop-color="#E4C482"/>
</linearGradient>
<linearGradient id="paint1_linear_315_399" x1="-1.0943" y1="17.3742" x2="15.6322" y2="4.28415" gradientUnits="userSpaceOnUse">
<stop stop-color="#BA9258"/>
<stop offset="0.987437" stop-color="#E4C482"/>
<stop offset="1" stop-color="#E4C482"/>
</linearGradient>
<linearGradient id="paint2_linear_315_399" x1="1.39677" y1="20.5577" x2="18.1233" y2="7.46747" gradientUnits="userSpaceOnUse">
<stop stop-color="#BA9258"/>
<stop offset="0.987437" stop-color="#E4C482"/>
<stop offset="1" stop-color="#E4C482"/>
</linearGradient>
<linearGradient id="paint3_linear_315_399" x1="6.52917" y1="27.1168" x2="23.2558" y2="14.0262" gradientUnits="userSpaceOnUse">
<stop stop-color="#BA9258"/>
<stop offset="0.987437" stop-color="#E4C482"/>
<stop offset="1" stop-color="#E4C482"/>
</linearGradient>
<linearGradient id="paint4_linear_315_399" x1="11.8804" y1="33.9527" x2="28.6069" y2="20.8629" gradientUnits="userSpaceOnUse">
<stop stop-color="#BA9258"/>
<stop offset="0.987437" stop-color="#E4C482"/>
<stop offset="1" stop-color="#E4C482"/>
</linearGradient>
<linearGradient id="paint5_linear_315_399" x1="4.36302" y1="24.3478" x2="21.0895" y2="11.2577" gradientUnits="userSpaceOnUse">
<stop stop-color="#BA9258"/>
<stop offset="0.987437" stop-color="#E4C482"/>
<stop offset="1" stop-color="#E4C482"/>
</linearGradient>
<linearGradient id="paint6_linear_315_399" x1="11.5202" y1="33.4933" x2="28.2468" y2="20.4032" gradientUnits="userSpaceOnUse">
<stop stop-color="#BA9258"/>
<stop offset="0.987437" stop-color="#E4C482"/>
<stop offset="1" stop-color="#E4C482"/>
</linearGradient>
<linearGradient id="paint7_linear_315_399" x1="6.97216" y1="27.682" x2="23.6987" y2="14.5916" gradientUnits="userSpaceOnUse">
<stop stop-color="#BA9258"/>
<stop offset="0.987437" stop-color="#E4C482"/>
<stop offset="1" stop-color="#E4C482"/>
</linearGradient>
<linearGradient id="paint8_linear_315_399" x1="15.6628" y1="38.7863" x2="32.3893" y2="25.6964" gradientUnits="userSpaceOnUse">
<stop stop-color="#BA9258"/>
<stop offset="0.987437" stop-color="#E4C482"/>
<stop offset="1" stop-color="#E4C482"/>
</linearGradient>
<linearGradient id="paint9_linear_315_399" x1="13.7489" y1="36.3414" x2="30.4754" y2="23.2512" gradientUnits="userSpaceOnUse">
<stop stop-color="#BA9258"/>
<stop offset="0.987437" stop-color="#E4C482"/>
<stop offset="1" stop-color="#E4C482"/>
</linearGradient>
<linearGradient id="paint10_linear_315_399" x1="9.64501" y1="31.097" x2="26.3716" y2="18.0071" gradientUnits="userSpaceOnUse">
<stop stop-color="#BA9258"/>
<stop offset="0.987437" stop-color="#E4C482"/>
<stop offset="1" stop-color="#E4C482"/>
</linearGradient>
<linearGradient id="paint11_linear_315_399" x1="18.2798" y1="42.1307" x2="35.0064" y2="29.0406" gradientUnits="userSpaceOnUse">
<stop stop-color="#BA9258"/>
<stop offset="0.987437" stop-color="#E4C482"/>
<stop offset="1" stop-color="#E4C482"/>
</linearGradient>
<linearGradient id="paint12_linear_315_399" x1="9.76397" y1="31.2486" x2="26.4904" y2="18.1587" gradientUnits="userSpaceOnUse">
<stop stop-color="#BA9258"/>
<stop offset="0.987437" stop-color="#E4C482"/>
<stop offset="1" stop-color="#E4C482"/>
</linearGradient>
<linearGradient id="paint13_linear_315_399" x1="4.91823" y1="25.0572" x2="21.6447" y2="11.9671" gradientUnits="userSpaceOnUse">
<stop stop-color="#BA9258"/>
<stop offset="0.987437" stop-color="#E4C482"/>
<stop offset="1" stop-color="#E4C482"/>
</linearGradient>
<linearGradient id="paint14_linear_315_399" x1="8.31746" y1="29.4014" x2="25.044" y2="16.3111" gradientUnits="userSpaceOnUse">
<stop stop-color="#BA9258"/>
<stop offset="0.987437" stop-color="#E4C482"/>
<stop offset="1" stop-color="#E4C482"/>
</linearGradient>
<linearGradient id="paint15_linear_315_399" x1="-0.115236" y1="18.6254" x2="16.6114" y2="5.53531" gradientUnits="userSpaceOnUse">
<stop stop-color="#BA9258"/>
<stop offset="0.987437" stop-color="#E4C482"/>
<stop offset="1" stop-color="#E4C482"/>
</linearGradient>
<linearGradient id="paint16_linear_315_399" x1="-1.58897" y1="16.7439" x2="15.1375" y2="3.65411" gradientUnits="userSpaceOnUse">
<stop stop-color="#BA9258"/>
<stop offset="0.987437" stop-color="#E4C482"/>
<stop offset="1" stop-color="#E4C482"/>
</linearGradient>
<linearGradient id="paint17_linear_315_399" x1="6.92769" y1="27.6244" x2="23.6541" y2="14.5348" gradientUnits="userSpaceOnUse">
<stop stop-color="#BA9258"/>
<stop offset="0.987437" stop-color="#E4C482"/>
<stop offset="1" stop-color="#E4C482"/>
</linearGradient>
<linearGradient id="paint18_linear_315_399" x1="9.90984" y1="31.4345" x2="26.6361" y2="18.3451" gradientUnits="userSpaceOnUse">
<stop stop-color="#BA9258"/>
<stop offset="0.987437" stop-color="#E4C482"/>
<stop offset="1" stop-color="#E4C482"/>
</linearGradient>
<linearGradient id="paint19_linear_315_399" x1="11.3548" y1="33.2821" x2="28.0815" y2="20.1921" gradientUnits="userSpaceOnUse">
<stop stop-color="#BA9258"/>
<stop offset="0.987437" stop-color="#E4C482"/>
<stop offset="1" stop-color="#E4C482"/>
</linearGradient>
<linearGradient id="paint20_linear_315_399" x1="8.60329" y1="29.7664" x2="25.3299" y2="16.676" gradientUnits="userSpaceOnUse">
<stop stop-color="#BA9258"/>
<stop offset="0.987437" stop-color="#E4C482"/>
<stop offset="1" stop-color="#E4C482"/>
</linearGradient>
<linearGradient id="paint21_linear_315_399" x1="4.36203" y1="24.3449" x2="21.0883" y2="11.2557" gradientUnits="userSpaceOnUse">
<stop stop-color="#BA9258"/>
<stop offset="0.987437" stop-color="#E4C482"/>
<stop offset="1" stop-color="#E4C482"/>
</linearGradient>
<linearGradient id="paint22_linear_315_399" x1="14.1246" y1="36.8225" x2="30.8513" y2="23.7317" gradientUnits="userSpaceOnUse">
<stop stop-color="#BA9258"/>
<stop offset="0.987437" stop-color="#E4C482"/>
<stop offset="1" stop-color="#E4C482"/>
</linearGradient>
<linearGradient id="paint23_linear_315_399" x1="17.1093" y1="40.6326" x2="33.8355" y2="27.5436" gradientUnits="userSpaceOnUse">
<stop stop-color="#BA9258"/>
<stop offset="0.987437" stop-color="#E4C482"/>
<stop offset="1" stop-color="#E4C482"/>
</linearGradient>
<linearGradient id="paint24_linear_315_399" x1="18.5544" y1="42.4804" x2="35.281" y2="29.3911" gradientUnits="userSpaceOnUse">
<stop stop-color="#BA9258"/>
<stop offset="0.987437" stop-color="#E4C482"/>
<stop offset="1" stop-color="#E4C482"/>
</linearGradient>
<linearGradient id="paint25_linear_315_399" x1="15.803" y1="38.9646" x2="32.5294" y2="25.8752" gradientUnits="userSpaceOnUse">
<stop stop-color="#BA9258"/>
<stop offset="0.987437" stop-color="#E4C482"/>
<stop offset="1" stop-color="#E4C482"/>
</linearGradient>
</defs>
</svg>
