<svg width="30" height="30" viewBox="0 0 30 30" fill="none" xmlns="http://www.w3.org/2000/svg">
<path d="M28.7063 14.5523V3.94727C28.7063 3.66493 28.4239 3.66493 28.2828 3.80612L16.6984 18.3638V18.5138C16.6984 18.6549 16.6984 18.6549 16.8396 18.6549H25.3095C25.4595 18.6549 25.7418 18.5138 25.883 18.3638L28.5651 14.9758C28.5651 14.8346 28.7063 14.6935 28.7063 14.5523ZM1.43494 14.9758L10.196 26.0043C10.3371 26.1454 10.4783 26.2866 10.7606 26.2866H19.0982C19.2394 26.2866 19.3805 26.1454 19.2394 26.0043L1.57609 3.80612C1.43494 3.66493 1.29375 3.66493 1.29375 3.94727V14.5523C1.29375 14.6935 1.29375 14.8346 1.43494 14.9758Z" fill="#FF4655"/>
</svg>
