<svg width="44" height="24" viewBox="0 0 44 24" fill="none" xmlns="http://www.w3.org/2000/svg">
<g clip-path="url(#clip0_320_649)">
<path d="M21.9524 0.0633015C22.2436 -0.0692287 22.5616 0.0414088 22.8284 0.214285C23.0149 0.37198 23.2013 0.531351 23.4101 0.634524C23.4261 0.673947 23.4593 0.751955 23.4752 0.79054C23.4669 0.816543 23.451 0.870226 23.4427 0.896229C23.5914 1.34079 23.6866 1.86756 23.5423 2.33469C23.4439 2.49238 23.2728 2.51679 23.1343 2.57785C23.1336 2.80349 23.1611 3.02669 23.1758 3.25065C23.472 3.31356 23.7228 3.04263 24.0159 3.06947C24.0555 2.8539 24.0868 2.63481 24.1393 2.42351C24.1999 2.56359 24.2024 2.72473 24.2031 2.88242C24.2797 2.91094 24.3576 2.93694 24.436 2.96202C24.4368 3.00069 24.4374 3.07786 24.4374 3.11645C25.722 3.12651 27.006 3.10881 28.2907 3.12567C28.2875 3.18338 28.2812 3.29922 28.2787 3.35718C28.3119 3.35718 28.3796 3.35802 28.4133 3.35802C28.412 3.0511 28.4133 2.74318 28.4126 2.43626C28.4452 2.4345 28.509 2.43199 28.541 2.43115C28.5417 2.67272 28.5423 2.9143 28.5442 3.15595C28.5722 3.20125 28.6284 3.29175 28.6567 3.33705C28.6777 3.30425 28.7198 3.23983 28.7408 3.20704C28.8385 3.32707 28.783 3.49147 28.7786 3.63893C29.1381 3.63382 29.5013 3.66569 29.8596 3.62711C29.8864 3.6011 29.94 3.54994 29.9668 3.52402C30.0161 3.5491 30.0658 3.57435 30.115 3.60035C30.2765 3.59515 30.4387 3.59448 30.6009 3.59364C30.5975 3.70352 30.595 3.81332 30.5918 3.92329C30.383 3.91901 30.1736 3.91322 29.968 3.96011C29.8352 3.81005 29.657 3.85769 29.4968 3.85199C29.2503 3.86709 28.9961 3.81005 28.7574 3.91314C28.6155 3.96514 28.4599 3.95264 28.3347 3.84687C28.3046 3.94501 28.3507 4.16478 28.2248 4.1563C27.7293 4.16478 27.2345 4.15052 26.7396 4.16058C26.672 4.20756 26.6036 4.25201 26.5361 4.29555C26.4646 4.5757 26.2596 4.76267 26.0852 4.93379C26.0635 5.36409 26.1931 5.76588 26.2435 6.18351C26.1459 6.22034 26.0475 6.25825 25.9511 6.30019C25.8126 6.72966 25.8975 7.31589 25.577 7.61551C25.3311 7.80332 25.1684 8.21181 24.8369 8.14731C25.0055 8.33185 24.791 8.27397 24.8133 8.12634C24.2138 8.05672 23.7087 7.59454 23.1877 7.24233C23.1635 7.43517 23.1252 7.62482 23.0856 7.81355C23.2835 7.86304 23.4469 8.05429 23.4821 8.32103C23.5453 8.9024 23.4188 9.47957 23.4208 10.0625C23.4348 10.4047 23.3231 10.7183 23.1839 10.9976C23.0619 11.1788 22.8697 10.9925 22.7235 10.9658C22.6903 11.0505 22.6578 11.1353 22.6258 11.2208C22.6673 11.4488 22.6852 11.6862 22.7433 11.9093C23.0696 12.3832 23.3665 12.8967 23.5944 13.4629C23.8291 14.1041 24.0382 14.7609 24.2209 15.4306C24.2387 15.5607 24.3319 15.6074 24.4137 15.6546C24.4246 15.7888 24.4355 15.9228 24.4457 16.0588C24.4776 16.12 24.5102 16.1812 24.5434 16.2432C24.5632 17.0704 24.4859 17.894 24.3881 18.7101C24.3276 19.0785 24.4915 19.4382 24.4251 19.809C24.4328 19.9988 24.3333 20.1421 24.2866 20.3099C24.2776 20.7016 24.2629 21.0983 24.2956 21.4893C24.3185 21.7762 24.5031 21.9607 24.6283 22.1746C24.7649 22.3651 24.8792 22.6209 25.0861 22.6887C25.2808 22.7651 25.4666 22.8758 25.6382 23.021C25.6906 23.1912 25.681 23.3717 25.6561 23.5485C25.282 23.6391 24.9001 23.5939 24.5222 23.6015C24.2309 23.6216 23.9711 23.4161 23.6882 23.3732C23.4143 23.3641 23.0803 23.5427 22.8697 23.2206C22.959 22.7737 22.9662 22.2937 23.1295 21.8768C23.1818 21.4046 23.0824 20.9256 23.1033 20.4491C23.0721 20.4147 23.0094 20.346 22.9782 20.3114C23.0006 20.0003 22.8837 19.7234 22.8447 19.4257C22.8193 18.991 22.7892 18.5566 22.7509 18.1238C22.7208 17.9133 22.8039 17.7204 22.9169 17.5804C22.9271 17.3371 22.9521 17.0963 22.9699 16.8548C22.9424 16.6979 22.8473 16.5814 22.786 16.4471C22.581 16.5605 22.3045 16.5068 22.1826 16.2432C21.8934 15.678 21.6048 15.1126 21.3123 14.5505C21.1974 14.5406 21.0761 14.5564 20.9688 14.496C20.8451 14.3292 20.7805 14.1069 20.7014 13.9039C20.5883 14.0708 20.5966 14.3266 20.4626 14.4785C20.1791 14.8359 20.1038 15.361 19.9557 15.8189C19.8421 16.1157 19.906 16.4739 19.7794 16.7634C19.7118 16.9193 19.5419 16.9503 19.4972 17.1283C19.4385 17.3202 19.3695 17.5191 19.2323 17.6359C19.0835 17.7641 19.044 18.0075 18.9776 18.2086C18.917 18.3941 19.007 18.5886 18.9859 18.7791C18.8914 19.3839 18.5984 19.8897 18.4751 20.4819C18.4189 20.7487 18.3384 21.049 18.1022 21.1059C17.8334 21.7367 17.6853 22.5085 17.8373 23.2187C17.9305 23.4418 17.9254 23.6926 17.8967 23.9384C17.4696 23.9821 17.0315 24.0575 16.6121 23.9007C16.5137 23.6448 16.5278 23.3437 16.5482 23.0671C16.6778 22.3397 16.8496 21.6251 16.9549 20.8903C16.8233 20.7368 16.8541 20.5021 16.8565 20.2965C16.8521 19.9131 17.0506 19.6061 17.1886 19.2916C17.2403 18.9687 17.2161 18.6216 17.3431 18.3253C17.4926 17.9545 17.6189 17.5537 17.8495 17.2542C17.8935 16.9899 18.0417 16.7904 18.1016 16.536C18.1655 16.3112 18.0537 16.083 18.0762 15.8533C18.131 15.1561 18.2275 14.4658 18.3112 13.7738C18.1529 13.6002 18.2039 13.3243 18.1535 13.0902C18.1784 12.9979 18.2096 12.9099 18.2473 12.8243C18.2077 12.7765 18.1688 12.7278 18.1292 12.6801C18.1675 12.4341 18.1566 11.9937 18.444 12.0736C18.4618 11.2592 18.2467 10.4707 18.3188 9.6553C18.3571 9.71394 18.3947 9.77357 18.4331 9.83313L18.4127 9.55716C18.5327 9.47328 18.6604 9.4087 18.7945 9.37598C18.5761 9.33832 18.3635 9.26535 18.1495 9.19984C18.0978 9.02109 18.1266 8.83076 18.1457 8.64791C18.2287 8.03055 18.2593 7.40481 18.2766 6.77906C18.5185 6.66851 18.7854 6.76237 19.0217 6.61466C18.9484 5.83206 18.9299 5.01515 19.1417 4.26434C19.3122 3.62509 19.6379 3.00858 20.1461 2.78386C20.3861 2.70845 20.6881 2.62365 20.8579 2.92981C20.9045 2.87361 20.9511 2.81574 20.9977 2.75954C20.6102 1.74845 21.0731 0.271324 21.9524 0.0633015V0.0633015ZM25.0535 4.44854C24.9514 4.53074 24.8511 4.62477 24.9585 4.77408C24.9062 4.8151 24.8537 4.85461 24.8007 4.89227C24.7177 4.97615 24.5312 5.02387 24.5529 5.19348C24.6462 5.39019 24.7265 5.59697 24.7931 5.81159C24.9967 5.59191 25.1589 5.29648 25.2687 4.98378C25.2917 4.95274 25.3383 4.89067 25.3613 4.86039C25.3511 4.71696 25.3268 4.57679 25.284 4.44435C25.2074 4.44611 25.1301 4.4477 25.0535 4.44854V4.44854Z" fill="black"/>
<path d="M26.9269 11.9573C27.2193 11.4726 27.6918 11.2041 28.1603 11.2142C29.5861 11.2159 31.0125 11.2133 32.4382 11.215C33.1337 11.2343 33.8117 11.9482 33.8922 12.876C31.9186 12.8674 29.9455 12.8835 27.9727 12.8674C27.9708 14.6021 27.9682 16.3375 27.9727 18.0731C29.4872 18.0698 31.0016 18.0664 32.5162 18.0748C32.5104 17.4532 32.518 16.8317 32.5117 16.2102C31.7629 16.2158 31.0138 16.2178 30.2649 16.2102C29.6641 16.1799 29.2172 15.4981 29.0819 14.7717C30.6922 14.7641 32.3018 14.7633 33.912 14.7725C33.9051 15.8353 33.9159 16.8989 33.9062 17.9617C33.8871 18.8567 33.301 19.6444 32.6292 19.7342C31.0758 19.7342 29.5217 19.7333 27.9682 19.7333C27.504 19.729 27.0935 19.344 26.8317 18.8634C26.6529 18.5236 26.6126 18.1018 26.5872 17.7016C26.5846 16.2756 26.5884 14.8488 26.5858 13.4229C26.5917 12.906 26.6613 12.36 26.9269 11.9573V11.9573ZM36.3465 11.2728C36.5069 11.2158 36.6741 11.2117 36.8396 11.2142C38.1574 11.2194 39.4759 11.2084 40.7938 11.2184C41.5408 11.2603 42.1971 12.1077 42.2259 13.0922C42.2272 14.6835 42.2272 16.2755 42.2259 17.8677C42.2125 18.8431 41.5548 19.7524 40.8009 19.7357C39.3515 19.7273 37.9022 19.7416 36.4526 19.729C35.7299 19.6233 35.175 18.7166 35.1699 17.7779C35.1597 16.3267 35.1712 14.8739 35.1642 13.4229C35.1584 12.9951 35.2172 12.5556 35.3896 12.1865C35.5919 11.7226 35.9546 11.3979 36.3465 11.2728V11.2728ZM36.5739 12.8214C36.5764 14.6114 36.5681 16.4021 36.5777 18.1921C37.9933 18.1972 39.4096 18.1913 40.825 18.1945C40.8294 16.403 40.8257 14.6112 40.8268 12.8186C39.4094 12.8179 37.9913 12.8147 36.5739 12.8214V12.8214ZM0.00223714 13.2475C0.0323102 12.277 0.650946 11.3651 1.40373 11.3274C2.81026 11.3256 4.2175 11.3256 5.62417 11.3282C6.38397 11.3183 7.01685 12.22 7.07418 13.1871C6.97266 13.1981 6.87114 13.2063 6.76962 13.2081C5.09486 13.2056 3.42009 13.2089 1.7459 13.2063C1.74519 14.7698 1.73894 16.3333 1.74909 17.8969C3.52672 17.8934 5.30364 17.8918 7.08121 17.8978C7.03077 18.9 6.38838 19.7894 5.61401 19.8287C4.33958 19.8523 3.06515 19.8295 1.79066 19.8397C1.47332 19.8539 1.14642 19.8019 0.860435 19.6115C0.367519 19.2802 0.018838 18.6049 0.00172635 17.8718C0.000321665 16.3301 -0.00159381 14.7891 0.00223714 13.2475V13.2475ZM8.42779 12.4875C8.66212 11.8156 9.19845 11.3166 9.76933 11.3257C11.174 11.3275 12.5793 11.3257 13.9847 11.3266C14.7183 11.3324 15.3644 12.1762 15.4162 13.1284C13.5633 13.1628 11.7091 13.1333 9.85559 13.1426C9.84722 13.6325 9.85112 14.1224 9.85048 14.613C11.2283 14.6188 12.6069 14.6147 13.9847 14.6147C14.3933 14.6356 14.8224 14.8077 15.1007 15.2228C15.4135 15.5903 15.5458 16.1497 15.556 16.6882C15.5629 17.2259 15.5629 17.7662 15.4965 18.2987C15.3446 19.161 14.7169 19.8035 14.0472 19.8312C12.7077 19.8479 11.3674 19.8329 10.0279 19.8396C9.71193 19.8481 9.38502 19.7884 9.10465 19.5863C8.66026 19.2817 8.34102 18.6692 8.29703 18.0118C10.1831 18.0237 12.0699 18.0193 13.956 18.0135C13.9605 17.4916 13.9579 16.97 13.9579 16.4483C12.5622 16.4358 11.1658 16.4466 9.76933 16.4431C8.9668 16.4516 8.2568 15.4827 8.27838 14.4318C8.30647 13.7842 8.19289 13.089 8.42779 12.4875V12.4875ZM42.6619 11.5003C42.8394 11.4944 43.0188 11.4852 43.1957 11.5204C43.1133 11.5481 43.0296 11.5624 42.9454 11.564C42.9346 11.8166 42.9333 12.0691 42.9358 12.3214C42.9173 12.3214 42.881 12.3214 42.863 12.3222C42.8643 12.063 42.8662 11.8038 42.8637 11.5455C42.8139 11.5507 42.7149 11.5624 42.6658 11.5673L42.6619 11.5003V11.5003ZM43.2952 11.4909C43.333 11.4935 43.4095 11.4985 43.448 11.501C43.5022 11.7283 43.5661 11.9514 43.6453 12.167C43.7193 11.9497 43.7679 11.7181 43.8496 11.5069C43.8853 11.5002 43.9569 11.4859 43.9925 11.4792C43.9727 11.7879 44.0538 12.1293 43.9268 12.4103C43.9039 12.1368 43.9134 11.8616 43.9 11.5873C43.8029 11.8433 43.757 12.1309 43.6299 12.3675C43.5328 12.1243 43.4914 11.8474 43.3752 11.6178C43.3676 11.8627 43.3714 12.1085 43.3688 12.3541L43.3005 12.3439C43.3004 12.0598 43.2972 11.7753 43.2952 11.4909V11.4909Z" fill="black"/>
</g>
<defs>
<clipPath id="clip0_320_649">
<rect width="44" height="24" fill="white"/>
</clipPath>
</defs>
</svg>
