<svg width="36" height="36" viewBox="0 0 36 36" fill="none" xmlns="http://www.w3.org/2000/svg">
<path fill-rule="evenodd" clip-rule="evenodd" d="M9.22499 20.25L15 26.4998L9.63749 27.75L6.74999 25.2502L9.22499 20.25ZM24.4665 8.25L27 9.64275L26.1555 14.25L20.244 10.3928L24.4665 8.25ZM8.71874 8.25C8.99999 8.25 9.22574 8.262 9.56249 8.53125C10.0312 8.90625 11.76 10.1302 11.76 10.1302L12.0735 10.6875C12.6442 10.716 12.6585 10.7677 13.3792 11.2972L29.25 22.0627C29.1277 22.3275 27.2407 27.75 27.2407 27.75H24.3277L6.74999 9.1875C6.74999 9.1875 7.03649 9.08025 7.31249 8.90625C7.74524 8.634 8.28974 8.25 8.71874 8.25ZM10.875 4.5H4.49999C4.10399 4.698 3.74999 4.9275 3.74999 5.71875V10.875V12.4688L4.49099 14.5297L3.74999 15.5625V16.4062L4.49999 16.9688V18L3.74999 18.75V21.5625L4.49999 22.0312V25.125C3.71699 25.6822 3.74999 26.3437 3.74999 27.1042V30.6562C5.50424 31.0942 5.21324 31.5 7.21874 31.5C8.99099 31.5 10.125 31.5 10.125 31.5C10.3965 31.4827 10.608 31.4258 10.875 31.4003C11.6205 31.3283 12.0937 30.75 12.0937 30.75L14.0625 31.5L14.8125 30.75C14.8125 30.75 15.7957 31.9672 16.0312 32.25L16.6875 31.5L18.75 32.25C18.75 32.25 19.515 31.5157 20.3437 31.5H24.375C24.4365 31.4407 25.125 30.75 25.125 30.75C25.4407 30.939 25.1617 31.5 28.0312 31.5C28.8232 31.5 29.5312 31.3125 29.5312 31.3125C29.4097 30.9075 29.3962 30.99 29.1562 30.75C29.1562 30.75 31.0312 30.75 32.25 31.5V19.8802L30.75 20.3438C30.7792 20.106 31.4722 19.7903 31.5 19.3125C31.5352 18.7103 31.467 16.623 31.3792 16.182C31.3342 15.957 30.9045 15.2978 30.75 15.0938C30.9337 14.598 31.5 14.25 31.5 14.25V13.6875L32.25 13.2502V10.0837L31.5 6.9375L32.25 6.12525V5.22825L31.458 4.542L28.8855 4.11675L28.2915 4.542L27.9945 4.047C27.9945 4.047 24.1065 3.7515 23.4015 3.7515C22.4992 3.7515 22.6305 3.819 22.3252 4.83525L21.0307 4.96725L20.9062 4.5H19.5937L19.8097 4.26225C20.0392 4.0455 19.959 4.1325 20.1382 3.75H15.6247C15.5542 3.879 15.2962 4.1715 15.093 4.5C15.093 4.5 14.697 4.49625 14.4 4.69425C14.103 4.89225 14.1045 5.25 13.7085 5.25C13.3125 5.25 12.4912 5.25 12.0262 5.25C11.0362 5.25 10.875 4.5 10.875 4.5Z" fill="url(#paint0_linear_303_64)"/>
<defs>
<linearGradient id="paint0_linear_303_64" x1="17.9999" y1="3.75" x2="17.9999" y2="32.25" gradientUnits="userSpaceOnUse">
<stop stop-color="#CC1623"/>
<stop offset="1" stop-color="#F7472B"/>
</linearGradient>
</defs>
</svg>
