<?xml version="1.0" encoding="UTF-8" standalone="no"?>
<svg
   xmlns:dc="http://purl.org/dc/elements/1.1/"
   xmlns:cc="http://creativecommons.org/ns#"
   xmlns:rdf="http://www.w3.org/1999/02/22-rdf-syntax-ns#"
   xmlns:svg="http://www.w3.org/2000/svg"
   xmlns="http://www.w3.org/2000/svg"
   xmlns:sodipodi="http://sodipodi.sourceforge.net/DTD/sodipodi-0.dtd"
   xmlns:inkscape="http://www.inkscape.org/namespaces/inkscape"
   version="1.1"
   id="svg2"
   xml:space="preserve"
   width="2410.8533"
   height="867.86267"
   viewBox="0 0 2410.8533 867.86267"
   sodipodi:docname="genshin-impact-seeklogo.com.ai"><metadata
     id="metadata8"><rdf:RDF><cc:Work
         rdf:about=""><dc:format>image/svg+xml</dc:format><dc:type
           rdf:resource="http://purl.org/dc/dcmitype/StillImage" /></cc:Work></rdf:RDF></metadata><defs
     id="defs6"><clipPath
       clipPathUnits="userSpaceOnUse"
       id="clipPath18"><path
         d="M 0,650.897 H 1808.138 V 0 H 0 Z"
         id="path16" /></clipPath></defs><sodipodi:namedview
     pagecolor="#ffffff"
     bordercolor="#666666"
     borderopacity="1"
     objecttolerance="10"
     gridtolerance="10"
     guidetolerance="10"
     inkscape:pageopacity="0"
     inkscape:pageshadow="2"
     inkscape:window-width="640"
     inkscape:window-height="480"
     id="namedview4" /><g
     id="g10"
     inkscape:groupmode="layer"
     inkscape:label="genshin-impact-seeklogo.com"
     transform="matrix(1.3333333,0,0,-1.3333333,0,867.86267)"><g
       id="g12"><g
         id="g14"
         clip-path="url(#clipPath18)"><g
           id="g20"
           transform="translate(1197.2441,265.0674)"><path
             d="m 0,0 c -7.383,15.806 -18.129,28.611 -33.333,38.118 0,-7.014 -0.038,-13.511 0.059,-20.006 0.009,-0.642 0.7,-1.613 1.307,-1.859 C -20.87,11.752 -10.25,6.335 0,0 m -71.76,54.127 c -5.173,0.397 -10.235,1.104 -15.294,1.085 -5.259,-0.021 -5.619,-0.846 -5.251,-6.006 0.504,-7.051 -1.616,-10.583 -7.581,-12.414 -1.735,-0.533 -3.523,-1.366 -4.883,-2.533 -1.622,-1.393 -2.81,-3.291 -4.486,-5.336 13.069,-0.821 25.217,-1.584 37.495,-2.357 z M -581.45,-59.889 c 0.438,-0.647 0.532,-0.957 0.721,-1.036 0.971,-0.408 1.958,-0.78 2.953,-1.12 5.25,-1.797 7.207,-4.491 7.209,-9.984 0.005,-8.725 0.002,-17.449 10e-4,-26.173 0,-6.914 -1.621,-9.128 -8.236,-11.379 -0.863,-0.293 -1.648,-0.816 -2.47,-1.233 0.085,-0.155 0.169,-0.308 0.253,-0.462 h 38.41 c -0.402,0.563 -0.504,0.872 -0.703,0.958 -0.887,0.381 -1.791,0.728 -2.707,1.035 -5.537,1.849 -7.513,4.554 -7.512,10.314 0,8.459 0,16.919 0,25.379 0,7.547 1.387,9.472 8.524,11.97 0.775,0.271 1.457,0.807 2.183,1.219 -0.086,0.171 -0.171,0.341 -0.257,0.512 z m 468.899,-17.175 c 0.306,0.048 0.613,0.097 0.919,0.145 -0.292,4.327 -0.528,8.658 -0.965,12.97 -0.042,0.41 -1.483,1.144 -2.019,0.965 -3.6,-1.202 -6.687,0.358 -9.969,1.373 -11.474,3.546 -22.372,2.543 -31.98,-5.164 -12.26,-9.83 -12.397,-27.057 -0.401,-37.22 8.156,-6.91 17.69,-8.789 28.006,-6.946 7.528,1.344 13.751,4.874 17.503,11.875 0.625,1.166 0.974,2.479 1.45,3.725 -0.204,0.095 -0.408,0.191 -0.612,0.286 -0.435,-0.601 -0.887,-1.19 -1.301,-1.804 -4.709,-6.986 -12.694,-9.956 -20.816,-7.74 -11.328,3.092 -17.207,14.746 -13.353,26.735 2.203,6.851 6.457,11.747 13.953,12.809 7.886,1.117 13.623,-2.374 17.754,-8.897 0.644,-1.017 1.222,-2.073 1.831,-3.112 m 97.16,-34.33 c 0.096,0.275 0.191,0.548 0.287,0.823 -1.254,0.477 -2.498,0.984 -3.764,1.425 -5.02,1.751 -7.049,4.57 -7.051,9.874 -0.005,10.316 -0.002,20.63 -0.002,30.946 v 3.542 c 4.404,-0.534 8.451,-0.66 12.305,-1.589 4.332,-1.046 5.076,-5.918 7.47,-9.045 0.223,0.143 0.447,0.284 0.669,0.427 v 15.043 h -57.964 v -15.081 c 0.218,-0.133 0.438,-0.266 0.658,-0.398 2.464,3.07 3.064,8.058 7.476,9.061 3.938,0.894 8.046,1.037 12.339,1.542 v -3.691 c 0,-9.874 0.001,-19.748 0,-29.623 0,-7.01 -1.567,-9.175 -8.169,-11.415 -0.882,-0.3 -1.69,-0.815 -2.532,-1.231 0.073,-0.203 0.148,-0.406 0.223,-0.61 z m -239.767,52.997 c 0.241,-0.81 0.288,-1.454 0.599,-1.921 1.439,-2.161 1.022,-4.131 -0.009,-6.398 -5.426,-11.927 -10.732,-23.909 -15.991,-35.91 -1.558,-3.556 -3.961,-5.94 -7.77,-6.901 -0.925,-0.235 -1.764,-0.804 -2.643,-1.22 0.061,-0.169 0.12,-0.337 0.181,-0.506 h 22.128 c 0.043,0.227 0.086,0.452 0.129,0.679 -1.184,0.463 -2.356,0.957 -3.553,1.384 -3.478,1.241 -4.418,3.011 -3.17,6.511 0.796,2.232 1.716,4.445 2.858,6.513 0.43,0.782 1.625,1.575 2.5,1.609 4.311,0.163 8.632,0.075 12.951,0.075 7.676,0 7.676,0 10.666,-7.066 1.938,-4.58 1.127,-6.349 -3.561,-7.934 -0.938,-0.318 -1.805,-0.842 -2.707,-1.272 l 0.287,-0.618 h 33.492 c 0.069,0.209 0.137,0.418 0.206,0.626 -0.778,0.385 -1.516,0.924 -2.337,1.125 -4.121,1.013 -6.551,3.656 -8.218,7.492 -6.03,13.875 -12.214,27.684 -18.412,41.485 -0.4,0.889 -1.384,2.119 -2.136,2.147 -5.08,0.19 -10.171,0.1 -15.49,0.1 m -96.991,-32.705 c 1.848,0 3.587,-0.002 5.325,0 5.746,0.005 11.207,1.139 16.145,4.209 9.875,6.141 9.91,16.725 0.066,22.964 -4.838,3.067 -10.21,4.203 -15.878,4.199 -9.611,-0.008 -19.222,0.002 -28.833,-0.01 -0.819,-10e-4 -1.636,-0.115 -2.455,-0.177 -0.062,-0.232 -0.123,-0.465 -0.185,-0.698 0.774,-0.418 1.513,-0.928 2.328,-1.239 4.326,-1.643 6.306,-4.778 6.285,-9.368 -0.045,-9.611 -0.054,-19.222 0.005,-28.833 0.025,-4.005 -1.878,-6.682 -5.326,-8.387 -1.099,-0.542 -2.332,-0.803 -3.466,-1.283 -0.686,-0.29 -1.3,-0.752 -1.947,-1.136 0.083,-0.139 0.166,-0.278 0.249,-0.417 h 38.136 c 0.056,0.252 0.112,0.503 0.169,0.754 -1.351,0.495 -2.695,1.005 -4.052,1.48 -3.276,1.148 -6.022,3.12 -6.466,6.664 -0.452,3.616 -0.1,7.332 -0.1,11.278 m -70.041,30.776 c -1.169,0.354 -1.547,0.567 -1.924,0.568 -7.672,0.023 -15.344,0.078 -23.012,-0.066 -0.776,-0.015 -1.854,-1.114 -2.243,-1.963 -3.518,-7.683 -6.909,-15.423 -10.349,-23.141 -0.357,-0.801 -0.784,-1.573 -1.434,-2.867 -4.035,9.077 -7.822,17.498 -11.501,25.965 -0.644,1.483 -1.36,2.161 -3.078,2.14 -7.582,-0.096 -15.166,-0.036 -22.749,-0.054 -0.617,-0.002 -1.235,-0.183 -2.594,-0.396 1.235,-0.766 1.761,-1.246 2.378,-1.453 5.217,-1.747 7.09,-5.482 6.991,-10.794 -0.164,-8.815 -0.043,-17.634 -0.045,-26.452 -0.003,-5.935 -1.953,-8.58 -7.653,-10.496 -1.09,-0.366 -2.125,-0.893 -3.186,-1.345 0.057,-0.218 0.115,-0.435 0.172,-0.653 h 22.184 c -0.538,0.707 -0.749,1.277 -1.138,1.453 -4.687,2.121 -5.632,6.081 -5.576,10.715 0.097,7.847 0.027,15.695 0.027,23.543 v 3.458 c 0.253,0.05 0.506,0.099 0.759,0.148 5.867,-13.174 11.732,-26.348 17.599,-39.522 l 0.905,-0.296 c 1.433,2.325 3.126,4.532 4.255,6.997 4.434,9.683 8.686,19.448 13.02,29.176 0.389,0.873 0.879,1.7 1.322,2.548 0.346,-10.145 0.452,-20.063 0.277,-29.975 -0.049,-2.759 -1.727,-4.923 -4.298,-6.246 -0.724,-0.373 -1.338,-0.962 -2.002,-1.451 0.069,-0.184 0.139,-0.367 0.208,-0.55 h 33.96 c 0.077,0.257 0.152,0.514 0.228,0.771 -1.298,0.492 -2.588,1.006 -3.896,1.473 -4.768,1.702 -6.777,4.501 -6.778,9.493 -0.002,9.434 0.066,18.869 -0.029,28.304 -0.046,4.614 1.853,7.744 6.178,9.408 0.826,0.319 1.586,0.811 3.022,1.56 m -69.524,122.792 c 0.185,-0.002 0.37,-0.004 0.554,-0.006 0.134,1.502 0.399,3.006 0.381,4.507 -0.118,9.793 -2.303,19.197 -5.386,28.441 -0.522,1.567 -1.353,1.96 -2.88,1.943 -6.173,-0.07 -12.354,-0.233 -18.517,0.013 -13.647,0.543 -27.335,0.806 -40.909,2.159 -9.865,0.983 -19.573,3.541 -29.358,5.365 -1.221,0.228 -2.479,0.264 -3.77,0.393 0.04,-0.487 0.014,-0.607 0.059,-0.648 0.454,-0.407 0.876,-0.869 1.387,-1.187 9.022,-5.612 12.717,-13.996 12.736,-24.325 0.026,-14.814 0.076,-29.628 0.115,-44.441 0.002,-0.895 0,-1.788 0,-3.219 8.571,8.244 17.739,14.418 27.727,19.44 0.81,0.408 1.544,1.849 1.557,2.819 0.121,8.641 0.046,17.284 0.081,25.926 0.02,5.059 2.648,7.667 7.645,7.677 6.703,0.015 13.406,0.073 20.107,-0.037 2.089,-0.034 4.224,-0.347 6.245,-0.883 8.713,-2.315 14.246,-8.424 18.451,-15.959 1.43,-2.563 2.527,-5.313 3.775,-7.978 m 249.209,118.848 c -0.006,0.358 -0.012,0.716 -0.017,1.074 -1.395,0.636 -2.749,1.393 -4.192,1.887 -4.157,1.422 -8.311,2.878 -12.538,4.071 -14.443,4.076 -23.616,13.33 -27.736,27.723 -1.329,4.647 -2.797,9.258 -4.327,13.843 -0.331,0.988 -1.206,1.794 -1.83,2.685 -0.645,-0.85 -1.316,-1.682 -1.92,-2.561 -0.188,-0.272 -0.17,-0.677 -0.285,-1.009 -2.26,-6.564 -4.41,-13.17 -6.821,-19.678 -3.348,-9.04 -9.711,-15.17 -18.751,-18.459 -6.112,-2.224 -12.286,-4.28 -18.409,-6.474 -1.579,-0.566 -3.074,-1.37 -4.607,-2.064 0.016,-0.327 0.032,-0.654 0.049,-0.98 1.466,-0.655 2.902,-1.393 4.405,-1.95 7.251,-2.688 14.601,-5.131 21.756,-8.052 4.957,-2.023 9.405,-5.145 11.859,-10.078 2.89,-5.807 5.429,-11.803 7.84,-17.828 1.366,-3.414 2.124,-7.068 3.275,-10.574 0.208,-0.633 0.977,-1.468 1.521,-1.494 0.51,-0.023 1.145,0.842 1.574,1.426 0.294,0.401 0.305,1 0.483,1.496 2.731,7.604 5.263,15.287 8.267,22.782 2.702,6.741 7.654,11.648 14.4,14.366 7.089,2.856 14.345,5.293 21.517,7.945 1.522,0.563 2.993,1.265 4.487,1.903 m 84.765,-71.436 c 0.293,-0.431 0.327,-0.542 0.395,-0.569 0.237,-0.095 0.483,-0.223 0.729,-0.229 15.171,-0.37 29.22,3.11 41.274,12.68 2.066,1.64 3.309,4.423 4.652,6.835 0.947,1.701 0.369,3.207 -1.233,4.583 -9.422,8.096 -19.77,14.741 -31.085,19.816 -20.81,9.333 -42.678,15.457 -64.762,20.85 -4.976,1.216 -8.514,-0.408 -11.296,-4.749 -1.9,-2.964 -3.627,-6.038 -5.479,-9.034 -2.68,-4.337 -5.884,-8.557 -10.498,-10.531 -3.752,-1.606 -4.381,-4.31 -5.453,-7.499 0.794,-0.293 1.417,-0.619 2.077,-0.753 5.17,-1.047 10.312,-2.307 15.527,-3.032 13.869,-1.925 27.813,-3.341 41.648,-5.473 14.95,-2.303 29.373,-6.573 42.923,-13.477 0.776,-0.395 1.517,-0.858 2.275,-1.29 -0.101,-0.217 -0.202,-0.435 -0.303,-0.652 -2.075,0.629 -4.126,1.365 -6.238,1.825 -0.695,0.151 -2.195,-0.35 -2.226,-0.662 -0.325,-3.247 -2.757,-4.288 -5.222,-5.346 -2.544,-1.092 -5.092,-2.176 -7.705,-3.293 m -187.925,31.594 c -1.362,3.707 -1.961,6.458 -5.732,8.055 -4.609,1.953 -7.814,6.185 -10.478,10.536 -1.838,3.004 -3.582,6.068 -5.487,9.028 -2.839,4.414 -6.516,5.936 -11.557,4.699 -18.383,-4.513 -36.562,-9.7 -54.255,-16.501 -15.091,-5.802 -29.014,-13.551 -41.295,-24.154 -1.448,-1.25 -1.888,-2.402 -1.404,-4.323 1.052,-4.183 3.91,-6.828 7.218,-9.094 10.411,-7.134 22.111,-10.229 34.584,-10.781 1.705,-0.076 3.417,-0.011 5.126,-0.011 0.051,0.296 0.103,0.592 0.155,0.888 -2.279,0.998 -4.536,2.048 -6.841,2.98 -3.105,1.257 -6.128,2.539 -6,6.925 -2.963,-0.835 -5.517,-1.554 -8.072,-2.273 -0.099,0.228 -0.198,0.457 -0.297,0.685 0.76,0.437 1.499,0.914 2.282,1.305 9.573,4.772 19.593,8.289 29.996,10.763 17.966,4.272 36.292,6.037 54.592,8.065 5.727,0.634 11.367,2.064 17.465,3.208 M -87.377,-19.619 c 0.079,-0.318 0.157,-0.638 0.235,-0.956 0.731,-0.141 1.461,-0.404 2.193,-0.404 21.693,-0.022 43.387,-0.028 65.081,0.023 0.724,0.002 1.449,0.602 2.174,0.923 -0.618,0.541 -1.151,1.322 -1.87,1.579 -2.567,0.915 -5.269,1.475 -7.79,2.492 -6.587,2.66 -9.393,6.984 -9.393,14.053 10e-4,26.632 0.002,53.264 0,79.896 0,7.643 3.148,12.121 10.423,14.672 2.154,0.755 4.392,1.274 6.544,2.036 0.845,0.3 1.559,0.968 2.611,1.647 -3.218,1.514 -68.374,1.249 -70.355,-0.277 1.011,-0.551 1.828,-1.147 2.741,-1.463 1.993,-0.688 4.054,-1.175 6.053,-1.85 7.376,-2.489 10.652,-7.057 10.652,-14.772 0.001,-26.632 0.001,-53.264 -10e-4,-79.896 0,-7.272 -3.005,-11.671 -9.88,-14.253 -2.137,-0.803 -4.395,-1.28 -6.56,-2.018 -1,-0.339 -1.908,-0.947 -2.858,-1.432 m -508.55,-6.385 c 0.172,-0.185 0.344,-0.371 0.515,-0.556 1.3,0.157 2.635,0.174 3.895,0.489 17.412,4.346 35.122,5.36 52.989,5.113 14.808,-0.205 29.62,-0.047 44.431,-0.033 1.167,0.001 2.344,-0.336 2.96,1.378 3.696,10.265 6.27,20.734 6.17,31.723 -0.011,1.199 -0.394,2.395 -0.609,3.616 -2.58,-4.507 -4.656,-8.916 -7.434,-12.826 -6.385,-8.98 -15.089,-13.746 -26.351,-13.497 -6.961,0.155 -13.928,0.015 -20.893,0.034 -5.069,0.014 -7.654,2.569 -7.684,7.627 -0.036,5.996 -0.009,11.991 -0.01,17.985 0,6.847 10e-4,6.845 6.648,8.276 16.438,3.54 33.104,4.853 49.877,5.137 1.093,0.018 2.186,0.132 3.721,0.229 -0.631,1.237 -1,2.096 -1.484,2.885 -2.042,3.332 -5.518,4.546 -8.904,5.767 -4.108,1.481 -5.976,4.47 -6.202,8.615 -0.096,1.746 -0.093,3.568 0.303,5.253 0.525,2.235 -0.485,3.281 -2.365,3.524 -2.604,0.336 -5.342,0.849 -7.863,0.396 -7.947,-1.429 -16.037,-2.6 -23.675,-5.089 -19.219,-6.265 -35.961,-16.516 -48.447,-32.86 -4.093,-5.359 -7.706,-11.006 -10.469,-17.369 6.487,3.658 12.731,7.179 19.129,10.788 2.443,-16.765 -6.084,-27.587 -18.248,-36.605 m 335.134,145.997 c -4.948,-2.51 -9.879,-1.307 -14.785,-0.267 -9.85,2.087 -19.71,4.16 -29.842,2.299 -15.558,-2.856 -27.639,-10.576 -33.737,-25.668 -6.595,-16.322 -0.351,-37.561 13.848,-48.607 2.712,-2.109 5.503,-4.125 8.325,-6.085 12.596,-8.747 25.226,-17.442 37.821,-26.189 4.123,-2.865 7.809,-6.237 9.189,-11.246 3.51,-12.732 -4.353,-26.593 -20,-26.693 -16.682,-0.107 -29.983,7.255 -40.058,20.171 -4.683,6.004 -8.284,12.852 -12.364,19.324 -0.845,1.341 -1.64,2.713 -2.812,4.659 -0.327,-1.424 -0.509,-2 -0.588,-2.587 -1.681,-12.472 -1.113,-24.814 2.447,-36.923 1.345,-4.577 3.382,-8.86 6.871,-12.316 6.702,3.452 13.498,3.205 20.351,0.981 12.299,-3.992 24.846,-4.731 37.614,-3.117 19.829,2.504 33.189,14.371 36.78,33.277 3.442,18.118 0.087,34.427 -14.094,47.328 -3.443,3.132 -7.218,5.937 -11.042,8.604 -12.652,8.819 -25.471,17.4 -38.052,26.318 -3.175,2.251 -6.251,5.044 -8.419,8.235 -5.784,8.511 -1.501,19.723 8.452,22.311 13.19,3.429 29.614,0.241 38.372,-16.354 3.051,-5.78 7.177,-9.84 12.783,-12.748 2.577,-1.337 5.108,-2.762 7.693,-4.081 0.74,-0.378 1.597,-0.525 2.399,-0.777 0.243,0.188 0.484,0.375 0.726,0.563 -3.794,14.074 -9.733,27.212 -17.878,39.588 M -440.93,62.651 c 0.845,-0.996 1.349,-1.549 1.809,-2.139 17.346,-22.235 34.675,-44.483 52.039,-66.703 4.394,-5.622 8.772,-11.266 13.39,-16.704 4.43,-5.215 9.94,-8.933 16.739,-10.451 0.837,-0.186 1.724,-0.143 2.851,-0.226 -1.588,3.001 -3.085,5.487 -4.263,8.116 -4.088,9.121 -5.018,18.83 -5.027,28.674 -0.023,24.863 0.074,49.727 -0.056,74.59 -0.04,7.646 2.016,13.689 9.775,16.639 0.794,0.302 1.284,1.4 2.375,2.66 -1.725,0.113 -2.503,0.208 -3.281,0.208 -15.694,0.009 -31.388,0.008 -47.082,0.005 -0.527,-10e-4 -1.275,0.168 -1.532,-0.106 -0.399,-0.426 -0.81,-1.383 -0.596,-1.724 0.383,-0.605 1.177,-1.051 1.89,-1.333 6.751,-2.678 9.198,-7.907 9.17,-14.834 -0.069,-17.104 -0.022,-34.209 -0.022,-51.314 v -3.532 c -1.122,0.53 -1.702,1.245 -2.268,1.971 -17.987,23.076 -35.967,46.158 -53.992,69.204 -0.58,0.741 -1.618,1.582 -2.452,1.592 -9.609,0.112 -19.22,0.085 -28.83,0.045 -0.533,-0.003 -1.064,-0.441 -1.597,-0.676 0.296,-0.589 0.502,-1.255 0.917,-1.742 0.319,-0.374 0.883,-0.573 1.372,-0.763 6.808,-2.637 9.19,-7.987 9.187,-14.848 -0.009,-27.42 -0.006,-54.84 -0.001,-82.261 0.001,-6.862 -2.428,-12.168 -9.212,-14.858 -0.987,-0.392 -1.75,-1.347 -2.617,-2.041 0.115,-0.268 0.229,-0.535 0.343,-0.801 0.996,-0.1 1.992,-0.284 2.988,-0.286 12.608,-0.02 25.217,-0.013 37.825,-0.013 3.262,0.001 6.525,-0.028 9.786,0.04 0.502,0.011 1.314,0.393 1.412,0.757 0.117,0.435 -0.282,1.117 -0.638,1.541 -0.319,0.38 -0.856,0.622 -1.343,0.808 -6.931,2.654 -9.271,8.032 -9.248,15.04 0.067,20.807 0.022,41.615 0.029,62.422 10e-4,0.832 0.085,1.665 0.16,3.043 m 205.709,34.671 c -0.198,-0.317 -0.397,-0.634 -0.595,-0.951 0.776,-0.726 1.427,-1.767 2.346,-2.127 7.021,-2.753 9.384,-8.223 9.375,-15.291 -0.035,-27.252 -0.001,-54.504 -0.037,-81.755 -0.004,-2.37 -0.158,-4.769 -0.55,-7.103 -1.439,-8.559 -6.163,-15.239 -12.337,-21.048 -0.835,-0.786 -1.649,-1.598 -2.876,-2.788 7.863,-0.018 14.443,2.215 20.9,4.84 10.839,4.405 21.86,7.944 33.736,7.929 0.619,-10e-4 1.238,0.419 1.859,0.643 -0.366,0.636 -0.65,1.341 -1.122,1.882 -0.324,0.372 -0.89,0.561 -1.378,0.756 -6.316,2.512 -8.86,7.44 -8.886,13.938 -0.032,7.761 -0.022,15.522 -0.004,23.283 0.013,5.334 2.602,7.878 8.017,7.885 10.584,0.013 21.167,0.009 31.75,0.002 5.959,-0.003 8.441,-2.522 8.451,-8.583 0.01,-6.968 -0.074,-13.936 0.024,-20.901 0.104,-7.356 -2.207,-13.125 -9.586,-15.996 -0.803,-0.313 -1.296,-1.428 -1.931,-2.171 0.861,-0.256 1.72,-0.731 2.583,-0.734 15.609,-0.045 31.219,-0.048 46.83,0.007 0.908,0.003 1.814,0.565 2.721,0.866 -0.66,0.729 -1.182,1.806 -2.003,2.13 -6.989,2.772 -9.373,8.138 -9.349,15.282 0.09,26.899 0.125,53.798 -0.022,80.697 -0.042,7.596 2.037,13.498 9.693,16.396 0.8,0.303 1.303,1.392 1.946,2.116 -1.337,0.696 -2.195,0.789 -3.054,0.789 -15.521,0.009 -31.044,0.022 -46.565,-0.029 -0.933,-0.004 -1.863,-0.534 -2.795,-0.819 0.74,-0.771 1.47,-1.554 2.229,-2.306 0.18,-0.178 0.454,-0.274 0.698,-0.37 5.248,-2.062 8.121,-6.141 8.327,-11.532 0.359,-9.421 0.282,-18.864 0.123,-28.294 -0.065,-3.807 -2.945,-6.407 -6.762,-6.437 -11.553,-0.089 -23.106,-0.097 -34.659,0.011 -3.753,0.035 -6.587,2.896 -6.625,6.577 -0.093,9.171 -0.203,18.349 0.055,27.514 0.154,5.494 2.798,9.737 8.049,12.051 0.958,0.423 1.964,0.87 2.736,1.548 0.962,0.845 0.851,1.74 -0.561,2.042 -0.592,0.126 -1.229,0.05 -1.846,0.05 -15.435,0.001 -30.869,0.001 -46.302,0.001 z m -372.767,-3.174 c 0.361,-0.017 0.721,-0.034 1.082,-0.051 0.449,1.714 1.221,3.413 1.298,5.144 0.54,12.142 0.998,24.29 1.328,36.44 0.072,2.619 -0.494,5.255 -0.747,7.885 -0.203,2.111 -1.206,2.957 -3.451,2.925 -6.077,-0.089 -11.913,1.298 -17.431,3.786 -4.812,2.171 -9.526,4.566 -14.248,6.931 -35.445,17.758 -78.389,9.999 -104.706,-18.935 -31.923,-35.097 -35.704,-87.985 -8.798,-127.101 14.278,-20.756 33.734,-34.225 58.811,-38.256 19.725,-3.172 39.206,-0.68 58.193,5.358 11.528,3.667 22.125,9.117 31.198,17.295 1.685,1.518 2.482,3.091 2.464,5.458 -0.089,11.993 0.083,23.988 0.035,35.981 -0.03,7.53 3.654,12.471 10.299,15.437 1.919,0.858 4.043,1.262 5.953,2.133 1.079,0.493 1.916,1.516 2.861,2.301 -1.156,0.352 -2.313,1.012 -3.47,1.014 -29.104,0.057 -58.207,0.045 -87.311,0.045 -0.617,0 -1.289,0.141 -1.839,-0.054 -0.839,-0.299 -1.594,-0.834 -2.384,-1.268 0.564,-0.805 0.955,-1.969 1.728,-2.342 1.726,-0.832 3.673,-1.188 5.474,-1.884 4.74,-1.831 9.781,-3.185 14.097,-5.747 6.538,-3.882 9.93,-9.952 9.762,-17.873 -0.184,-8.728 0.118,-17.466 -0.106,-26.191 -0.12,-4.645 -0.694,-9.308 -1.454,-13.898 -0.582,-3.511 -3.039,-5.481 -6.647,-5.767 -9.162,-0.726 -17.892,0.562 -26.021,5.208 -11.368,6.501 -19.335,16.128 -24.971,27.647 -12.971,26.508 -14.349,54.193 -7.2,82.465 3.612,14.29 9.969,27.297 20.316,38.04 8.277,8.594 18.049,14.382 30.301,14.9 13.872,0.585 24.872,-5.532 34.122,-15.25 10.347,-10.869 16.336,-24.106 20.279,-38.394 0.317,-1.149 0.785,-2.256 1.183,-3.382 m 729.03,-43.46 c -1.786,1.488 -2.987,2.479 -4.18,3.482 -26.586,22.362 -53.166,44.732 -79.782,67.059 -0.789,0.662 -2.02,1.354 -2.934,1.227 -12.214,-1.7 -24.413,-3.525 -36.602,-5.4 -0.684,-0.106 -1.258,-0.926 -1.884,-1.413 0.575,-0.587 1.051,-1.466 1.745,-1.704 1.908,-0.651 3.918,-0.996 5.87,-1.529 7.275,-1.988 11.433,-7.372 11.436,-14.873 0.013,-31.22 -0.006,-62.44 0.018,-93.66 0.003,-4.764 -1.5,-8.97 -4.22,-12.82 -2.91,-4.121 -7.061,-6.529 -11.51,-8.591 -1.244,-0.577 -2.331,-1.493 -3.72,-2.403 2.679,-1.537 81.249,-1.512 83.694,-0.071 -0.869,0.713 -1.553,1.441 -2.382,1.919 -1.293,0.748 -2.701,1.293 -4.029,1.985 -8.496,4.43 -12.973,11.302 -12.958,21.026 0.042,23.811 0.013,47.624 0.019,71.436 0.001,0.909 0.075,1.818 0.133,3.126 1.062,-0.822 1.761,-1.325 2.418,-1.878 17.88,-15.043 35.685,-30.175 53.69,-45.066 3.559,-2.942 6.14,-5.811 5.4,-10.716 -0.166,-1.098 0.161,-2.277 0.295,-3.416 2.869,-24.369 14.932,-42.314 37.198,-53.069 6.086,-2.941 7.191,-2.182 7.191,4.549 0.002,52.122 0.027,104.243 -0.033,156.365 -0.008,5.991 1.506,11.505 5.316,15.955 3.222,3.763 7.298,6.796 11.001,10.146 0.988,0.894 1.995,1.767 2.993,2.648 -0.113,0.259 -0.224,0.518 -0.336,0.776 -0.974,-0.063 -1.975,-0.001 -2.916,-0.208 -14.019,-3.081 -28.031,-6.194 -42.042,-9.308 -11.779,-2.618 -23.558,-5.225 -35.32,-7.915 -0.91,-0.207 -1.68,-1.025 -2.516,-1.559 0.793,-0.564 1.535,-1.226 2.393,-1.662 0.69,-0.35 1.52,-0.421 2.284,-0.624 9.764,-2.596 14.268,-8.427 14.269,-18.497 0.004,-20.637 0.001,-41.275 0.001,-61.911 z"
             style="fill:#ffffff;fill-opacity:1;fill-rule:nonzero;stroke:none"
             id="path22" /></g><g
           id="g24"
           transform="translate(1318.2861,315.7559)"><path
             d="m 0,0 v 3.405 c 0,20.637 0.003,41.274 -0.001,61.912 -0.001,10.069 -4.505,15.9 -14.269,18.496 -0.764,0.204 -1.594,0.274 -2.284,0.625 -0.858,0.435 -1.6,1.098 -2.393,1.661 0.836,0.535 1.606,1.352 2.516,1.56 11.762,2.689 23.541,5.297 35.32,7.914 14.011,3.115 28.023,6.227 42.042,9.309 0.941,0.207 1.942,0.144 2.916,0.207 0.112,-0.258 0.223,-0.517 0.336,-0.775 -0.998,-0.882 -2.005,-1.755 -2.993,-2.648 -3.703,-3.351 -7.779,-6.383 -11.001,-10.147 -3.81,-4.45 -5.324,-9.964 -5.316,-15.954 0.06,-52.122 0.035,-104.244 0.033,-156.366 0,-6.73 -1.105,-7.489 -7.191,-4.549 -22.266,10.755 -34.329,28.701 -37.198,53.07 -0.134,1.138 -0.461,2.317 -0.295,3.416 0.74,4.905 -1.841,7.773 -5.4,10.716 -18.005,14.89 -35.81,30.023 -53.69,45.066 -0.657,0.553 -1.356,1.055 -2.418,1.878 -0.058,-1.308 -0.132,-2.217 -0.133,-3.127 -0.006,-23.812 0.023,-47.624 -0.019,-71.436 -0.015,-9.723 4.462,-16.595 12.958,-21.026 1.328,-0.691 2.736,-1.236 4.029,-1.984 0.829,-0.479 1.513,-1.206 2.382,-1.919 -2.445,-1.442 -81.015,-1.466 -83.694,0.071 1.389,0.909 2.476,1.825 3.72,2.402 4.449,2.063 8.6,4.47 11.51,8.591 2.72,3.851 4.223,8.057 4.22,12.82 -0.024,31.22 -0.005,62.44 -0.018,93.661 -0.003,7.5 -4.161,12.884 -11.436,14.873 -1.952,0.533 -3.962,0.878 -5.87,1.529 -0.694,0.237 -1.17,1.116 -1.745,1.703 0.626,0.487 1.2,1.308 1.884,1.413 12.189,1.876 24.388,3.7 36.602,5.4 0.914,0.127 2.145,-0.565 2.934,-1.227 C -57.346,48.213 -30.766,25.843 -4.18,3.481 -2.987,2.479 -1.786,1.487 0,0"
             style="fill:#000000;fill-opacity:1;fill-rule:evenodd;stroke:none"
             id="path26" /></g><g
           id="g28"
           transform="translate(589.2559,359.2153)"><path
             d="m 0,0 c -0.397,1.126 -0.866,2.233 -1.183,3.382 -3.943,14.288 -9.932,27.525 -20.278,38.394 -9.251,9.718 -20.251,15.835 -34.123,15.25 -12.251,-0.518 -22.024,-6.306 -30.301,-14.9 -10.346,-10.743 -16.703,-23.75 -20.316,-38.04 -7.149,-28.272 -5.771,-55.957 7.201,-82.465 5.636,-11.519 13.602,-21.146 24.971,-27.647 8.128,-4.646 16.859,-5.933 26.02,-5.208 3.609,0.286 6.066,2.256 6.647,5.767 0.76,4.59 1.335,9.253 1.454,13.898 0.224,8.725 -0.077,17.463 0.107,26.191 0.167,7.921 -3.225,13.991 -9.762,17.873 -4.317,2.562 -9.357,3.916 -14.098,5.747 -1.801,0.696 -3.748,1.052 -5.473,1.884 -0.773,0.374 -1.164,1.537 -1.729,2.342 0.791,0.434 1.545,0.969 2.384,1.268 0.55,0.195 1.222,0.054 1.839,0.054 29.104,0 58.207,0.012 87.311,-0.045 1.157,-0.002 2.314,-0.662 3.471,-1.014 -0.946,-0.785 -1.783,-1.808 -2.861,-2.301 -1.911,-0.871 -4.034,-1.275 -5.954,-2.133 C 8.683,-44.669 4.998,-49.61 5.028,-57.14 5.077,-69.133 4.904,-81.128 4.994,-93.121 c 0.017,-2.367 -0.78,-3.94 -2.465,-5.458 -9.072,-8.178 -19.67,-13.628 -31.197,-17.295 -18.987,-6.038 -38.468,-8.53 -58.194,-5.358 -25.077,4.031 -44.533,17.5 -58.81,38.256 -26.907,39.116 -23.125,92.004 8.797,127.101 26.317,28.934 69.262,36.693 104.707,18.936 4.722,-2.366 9.435,-4.761 14.248,-6.932 5.518,-2.488 11.354,-3.875 17.43,-3.786 2.245,0.032 3.248,-0.814 3.451,-2.925 C 3.214,46.788 3.78,44.152 3.708,41.533 3.378,29.383 2.92,17.235 2.38,5.093 2.304,3.362 1.532,1.663 1.082,-0.051 0.721,-0.034 0.361,-0.017 0,0"
             style="fill:#000000;fill-opacity:1;fill-rule:evenodd;stroke:none"
             id="path30" /></g><g
           id="g32"
           transform="translate(962.0234,362.3896)"><path
             d="m 0,0 h 2.603 c 15.433,0 30.867,0 46.301,-0.001 0.617,0 1.255,0.076 1.847,-0.05 1.412,-0.302 1.522,-1.197 0.561,-2.042 -0.772,-0.678 -1.778,-1.126 -2.736,-1.548 -5.251,-2.314 -7.895,-6.558 -8.05,-12.051 -0.257,-9.165 -0.147,-18.343 -0.054,-27.514 0.038,-3.682 2.872,-6.542 6.625,-6.577 11.552,-0.109 23.106,-0.1 34.659,-0.011 3.816,0.029 6.697,2.63 6.762,6.437 0.159,9.429 0.236,18.873 -0.123,28.294 -0.207,5.391 -3.08,9.47 -8.328,11.531 -0.244,0.096 -0.517,0.193 -0.697,0.371 -0.76,0.752 -1.489,1.535 -2.229,2.306 0.931,0.285 1.862,0.815 2.795,0.818 15.521,0.052 31.043,0.039 46.565,0.03 0.858,0 1.717,-0.093 3.054,-0.789 -0.643,-0.725 -1.146,-1.813 -1.947,-2.116 -7.655,-2.899 -9.734,-8.8 -9.692,-16.397 0.147,-26.898 0.111,-53.797 0.022,-80.696 -0.024,-7.144 2.36,-12.511 9.349,-15.282 0.82,-0.324 1.343,-1.401 2.003,-2.13 -0.907,-0.302 -1.813,-0.863 -2.722,-0.866 -15.61,-0.055 -31.22,-0.052 -46.83,-0.007 -0.862,0.003 -1.721,0.477 -2.583,0.733 0.636,0.744 1.128,1.859 1.932,2.171 7.379,2.871 9.689,8.641 9.586,15.996 -0.099,6.966 -0.014,13.934 -0.025,20.902 -0.009,6.06 -2.492,8.58 -8.451,8.583 -10.583,0.007 -21.166,0.01 -31.75,-0.002 -5.415,-0.007 -8.004,-2.551 -8.016,-7.885 -0.018,-7.762 -0.029,-15.522 0.004,-23.283 0.026,-6.498 2.57,-11.426 8.885,-13.939 0.489,-0.194 1.055,-0.383 1.378,-0.756 0.473,-0.541 0.757,-1.246 1.122,-1.881 -0.62,-0.224 -1.239,-0.644 -1.858,-0.643 -11.876,0.015 -22.898,-3.524 -33.736,-7.93 -6.457,-2.625 -13.038,-4.857 -20.9,-4.839 1.227,1.19 2.04,2.001 2.876,2.788 6.174,5.809 10.898,12.489 12.337,21.047 0.392,2.334 0.546,4.734 0.55,7.104 0.036,27.251 0.002,54.503 0.037,81.755 0.009,7.067 -2.355,12.538 -9.375,15.291 -0.919,0.36 -1.57,1.401 -2.347,2.127 C -0.397,-0.635 -0.198,-0.317 0,0"
             style="fill:#000000;fill-opacity:1;fill-rule:evenodd;stroke:none"
             id="path34" /></g><g
           id="g36"
           transform="translate(756.3145,327.7187)"><path
             d="m 0,0 c -0.075,-1.378 -0.16,-2.211 -0.16,-3.043 -0.007,-20.808 0.038,-41.615 -0.029,-62.423 -0.023,-7.008 2.316,-12.386 9.248,-15.039 0.486,-0.186 1.024,-0.429 1.343,-0.808 0.356,-0.424 0.755,-1.106 0.638,-1.541 -0.098,-0.365 -0.91,-0.747 -1.413,-0.757 -3.261,-0.069 -6.523,-0.039 -9.786,-0.04 -12.608,0 -25.216,-0.007 -37.824,0.012 -0.996,0.002 -1.992,0.187 -2.988,0.286 -0.114,0.267 -0.229,0.534 -0.343,0.801 0.867,0.695 1.63,1.65 2.617,2.041 6.784,2.691 9.213,7.996 9.212,14.859 -0.005,27.421 -0.008,54.84 10e-4,82.26 0.003,6.861 -2.38,12.211 -9.187,14.849 -0.489,0.189 -1.053,0.389 -1.372,0.763 -0.415,0.487 -0.621,1.153 -0.917,1.742 0.532,0.235 1.064,0.673 1.597,0.675 9.61,0.04 19.22,0.068 28.829,-0.045 0.834,-0.009 1.873,-0.85 2.452,-1.591 18.025,-23.046 36.005,-46.128 53.993,-69.204 0.566,-0.727 1.146,-1.442 2.268,-1.972 v 3.532 c 0,17.106 -0.047,34.21 0.022,51.314 0.028,6.927 -2.42,12.156 -9.171,14.834 -0.713,0.283 -1.507,0.728 -1.889,1.334 -0.215,0.34 0.196,1.297 0.596,1.724 0.257,0.273 1.005,0.105 1.532,0.105 15.694,0.003 31.388,0.005 47.082,-0.004 0.778,0 1.556,-0.096 3.281,-0.208 -1.091,-1.26 -1.582,-2.359 -2.376,-2.661 -7.758,-2.949 -9.815,-8.992 -9.775,-16.638 0.13,-24.863 0.034,-49.727 0.057,-74.591 0.009,-9.843 0.939,-19.552 5.027,-28.673 1.178,-2.629 2.675,-5.116 4.263,-8.117 -1.127,0.083 -2.015,0.04 -2.851,0.227 -6.799,1.518 -12.309,5.235 -16.739,10.451 -4.618,5.438 -8.997,11.081 -13.39,16.703 C 36.483,-46.622 19.155,-24.374 1.809,-2.139 1.349,-1.55 0.844,-0.996 0,0"
             style="fill:#000000;fill-opacity:1;fill-rule:evenodd;stroke:none"
             id="path38" /></g><g
           id="g40"
           transform="translate(936.4512,385.0601)"><path
             d="m 0,0 c 8.145,-12.376 14.084,-25.514 17.878,-39.587 -0.242,-0.188 -0.483,-0.376 -0.726,-0.563 -0.802,0.252 -1.659,0.399 -2.399,0.776 -2.585,1.319 -5.116,2.744 -7.693,4.081 -5.606,2.909 -9.732,6.968 -12.783,12.749 -8.758,16.594 -25.182,19.782 -38.372,16.353 -9.953,-2.588 -14.236,-13.799 -8.452,-22.311 2.168,-3.191 5.244,-5.984 8.419,-8.235 12.581,-8.918 25.4,-17.499 38.052,-26.318 3.824,-2.666 7.599,-5.472 11.042,-8.604 14.18,-12.901 17.536,-29.21 14.094,-47.328 -3.591,-18.906 -16.951,-30.772 -36.78,-33.277 -12.768,-1.613 -25.315,-0.875 -37.614,3.117 -6.854,2.225 -13.649,2.472 -20.351,-0.98 -3.489,3.456 -5.526,7.738 -6.871,12.315 -3.56,12.109 -4.128,24.451 -2.447,36.924 0.079,0.587 0.261,1.162 0.588,2.587 1.172,-1.947 1.967,-3.319 2.812,-4.659 4.08,-6.473 7.681,-13.321 12.364,-19.325 10.075,-12.916 23.376,-20.278 40.058,-20.171 15.647,0.1 23.51,13.961 20,26.694 -1.381,5.009 -5.066,8.381 -9.189,11.245 -12.595,8.747 -25.225,17.442 -37.821,26.189 -2.822,1.96 -5.613,3.976 -8.325,6.085 -14.199,11.046 -20.443,32.285 -13.848,48.607 6.098,15.093 18.179,22.813 33.737,25.669 10.132,1.86 19.992,-0.213 29.842,-2.3 C -9.879,-1.307 -4.948,-2.51 0,0"
             style="fill:#000000;fill-opacity:1;fill-rule:evenodd;stroke:none"
             id="path42" /></g><g
           id="g44"
           transform="translate(601.3174,239.0635)"><path
             d="M 0,0 C 12.164,9.018 20.69,19.84 18.248,36.604 11.85,32.996 5.606,29.475 -0.881,25.816 c 2.763,6.364 6.376,12.011 10.469,17.37 12.486,16.344 29.228,26.595 48.447,32.86 7.637,2.489 15.728,3.66 23.674,5.089 2.521,0.453 5.259,-0.06 7.864,-0.396 1.88,-0.243 2.89,-1.289 2.365,-3.524 -0.396,-1.685 -0.399,-3.507 -0.304,-5.253 0.227,-4.146 2.095,-7.134 6.202,-8.615 3.387,-1.221 6.863,-2.435 8.905,-5.767 0.484,-0.789 0.853,-1.648 1.484,-2.885 -1.535,-0.097 -2.628,-0.211 -3.722,-0.229 C 87.73,54.182 71.064,52.869 54.626,49.329 47.979,47.897 47.979,47.9 47.979,41.053 c 0,-5.994 -0.026,-11.99 0.01,-17.985 0.03,-5.058 2.615,-7.613 7.683,-7.627 6.966,-0.019 13.933,0.121 20.894,-0.034 11.262,-0.249 19.966,4.517 26.351,13.497 2.778,3.909 4.854,8.319 7.434,12.825 0.214,-1.22 0.598,-2.416 0.609,-3.615 0.1,-10.989 -2.474,-21.458 -6.17,-31.723 C 104.173,4.677 102.997,5.014 101.83,5.013 87.019,4.999 72.207,4.841 57.398,5.046 39.532,5.293 21.821,4.279 4.41,-0.067 3.149,-0.382 1.815,-0.399 0.515,-0.556 0.343,-0.371 0.171,-0.186 0,0"
             style="fill:#000000;fill-opacity:1;fill-rule:evenodd;stroke:none"
             id="path46" /></g><g
           id="g48"
           transform="translate(1109.8672,245.4482)"><path
             d="m 0,0 c 0.95,0.485 1.858,1.093 2.858,1.433 2.164,0.737 4.423,1.214 6.56,2.017 6.875,2.582 9.88,6.981 9.88,14.253 0.002,26.632 0.002,53.264 0.001,79.896 0,7.715 -3.277,12.283 -10.653,14.773 -1.999,0.674 -4.059,1.161 -6.052,1.849 -0.913,0.316 -1.73,0.912 -2.741,1.463 1.981,1.526 67.137,1.791 70.355,0.277 -1.052,-0.679 -1.766,-1.347 -2.611,-1.647 -2.152,-0.762 -4.39,-1.281 -6.544,-2.036 -7.275,-2.55 -10.423,-7.029 -10.423,-14.672 0.002,-26.631 10e-4,-53.264 0,-79.896 0,-7.068 2.806,-11.393 9.393,-14.053 2.521,-1.017 5.223,-1.577 7.79,-2.492 0.719,-0.257 1.251,-1.038 1.87,-1.579 -0.725,-0.321 -1.45,-0.921 -2.174,-0.923 C 45.815,-1.388 24.121,-1.382 2.428,-1.36 1.696,-1.359 0.966,-1.097 0.235,-0.956 0.157,-0.638 0.079,-0.318 0,0"
             style="fill:#000000;fill-opacity:1;fill-rule:evenodd;stroke:none"
             id="path50" /></g><g
           id="g52"
           transform="translate(851.5791,406.5391)"><path
             d="m 0,0 c -6.098,-1.144 -11.738,-2.573 -17.465,-3.208 -18.3,-2.027 -36.626,-3.792 -54.592,-8.065 -10.402,-2.474 -20.423,-5.991 -29.996,-10.763 -0.783,-0.39 -1.522,-0.867 -2.282,-1.304 0.099,-0.229 0.198,-0.457 0.297,-0.686 2.555,0.719 5.109,1.439 8.072,2.273 -0.128,-4.386 2.895,-5.668 6,-6.924 2.305,-0.932 4.562,-1.983 6.841,-2.981 -0.052,-0.296 -0.104,-0.592 -0.155,-0.887 -1.709,0 -3.421,-0.066 -5.126,0.01 -12.473,0.553 -24.173,3.647 -34.584,10.782 -3.308,2.265 -6.166,4.91 -7.218,9.093 -0.484,1.922 -0.044,3.074 1.404,4.324 12.281,10.602 26.204,18.352 41.295,24.153 17.693,6.801 35.872,11.988 54.255,16.501 5.041,1.238 8.718,-0.285 11.557,-4.699 1.905,-2.96 3.649,-6.023 5.488,-9.027 2.663,-4.352 5.868,-8.584 10.477,-10.536 C -1.961,6.458 -1.362,3.708 0,0"
             style="fill:#000000;fill-opacity:1;fill-rule:evenodd;stroke:none"
             id="path54" /></g><g
           id="g56"
           transform="translate(1039.5039,374.9453)"><path
             d="m 0,0 c 2.613,1.117 5.161,2.201 7.705,3.293 2.465,1.059 4.898,2.099 5.222,5.346 0.031,0.312 1.531,0.813 2.226,0.662 2.113,-0.46 4.163,-1.196 6.239,-1.824 0.1,0.216 0.201,0.434 0.302,0.651 -0.757,0.432 -1.499,0.895 -2.275,1.29 -13.55,6.904 -27.973,11.174 -42.923,13.478 -13.835,2.131 -27.779,3.547 -41.647,5.472 -5.216,0.725 -10.358,1.985 -15.528,3.032 -0.66,0.134 -1.283,0.46 -2.077,0.753 1.072,3.189 1.701,5.893 5.453,7.499 4.615,1.974 7.819,6.194 10.498,10.531 1.852,2.996 3.579,6.07 5.479,9.034 2.782,4.341 6.32,5.965 11.297,4.749 C -27.945,58.573 -6.078,52.449 14.732,43.116 26.047,38.042 36.396,31.396 45.817,23.3 47.419,21.924 47.997,20.418 47.05,18.717 45.707,16.305 44.464,13.522 42.398,11.882 30.344,2.313 16.295,-1.167 1.124,-0.798 0.878,-0.792 0.632,-0.664 0.396,-0.569 0.327,-0.542 0.293,-0.431 0,0"
             style="fill:#000000;fill-opacity:1;fill-rule:evenodd;stroke:none"
             id="path58" /></g><g
           id="g60"
           transform="translate(954.7393,446.3818)"><path
             d="m 0,0 c -1.494,-0.638 -2.965,-1.34 -4.487,-1.904 -7.172,-2.652 -14.428,-5.089 -21.517,-7.945 -6.746,-2.717 -11.698,-7.624 -14.4,-14.365 -3.004,-7.495 -5.536,-15.179 -8.267,-22.782 -0.178,-0.496 -0.189,-1.095 -0.483,-1.496 -0.429,-0.585 -1.064,-1.45 -1.575,-1.426 -0.543,0.026 -1.312,0.86 -1.52,1.494 -1.151,3.506 -1.909,7.159 -3.275,10.573 -2.412,6.026 -4.951,12.021 -7.84,17.829 -2.454,4.933 -6.903,8.054 -11.859,10.078 -7.155,2.921 -14.505,5.363 -21.756,8.051 -1.503,0.558 -2.939,1.295 -4.405,1.95 -0.017,0.327 -0.033,0.653 -0.05,0.98 1.534,0.694 3.029,1.499 4.608,2.065 6.123,2.194 12.297,4.249 18.409,6.474 9.04,3.289 15.403,9.419 18.751,18.458 2.411,6.509 4.561,13.114 6.821,19.678 0.115,0.332 0.097,0.737 0.284,1.01 0.604,0.878 1.276,1.71 1.921,2.56 0.624,-0.89 1.499,-1.696 1.829,-2.684 1.531,-4.585 2.998,-9.196 4.328,-13.843 C -40.363,20.362 -31.19,11.108 -16.747,7.032 -12.521,5.838 -8.366,4.383 -4.209,2.96 -2.766,2.467 -1.412,1.71 -0.018,1.073 -0.012,0.716 -0.006,0.357 0,0"
             style="fill:#000000;fill-opacity:1;fill-rule:evenodd;stroke:none"
             id="path62" /></g><g
           id="g64"
           transform="translate(705.5303,327.5332)"><path
             d="m 0,0 c -1.249,2.665 -2.345,5.415 -3.775,7.978 -4.205,7.535 -9.738,13.645 -18.451,15.959 -2.021,0.537 -4.156,0.849 -6.245,0.883 -6.701,0.111 -13.404,0.052 -20.107,0.037 -4.997,-0.01 -7.625,-2.618 -7.646,-7.677 -0.034,-8.642 0.041,-17.285 -0.08,-25.926 -0.013,-0.97 -0.747,-2.411 -1.557,-2.818 -9.989,-5.023 -19.157,-11.197 -27.727,-19.441 0,1.431 0.002,2.324 0,3.219 -0.039,14.813 -0.089,29.627 -0.116,44.441 -0.018,10.329 -3.713,18.713 -12.735,24.325 -0.511,0.318 -0.934,0.78 -1.387,1.187 -0.045,0.041 -0.019,0.161 -0.059,0.648 1.291,-0.129 2.549,-0.165 3.77,-0.393 9.784,-1.824 19.492,-4.381 29.358,-5.365 13.573,-1.352 27.261,-1.616 40.908,-2.159 6.163,-0.246 12.345,-0.083 18.517,-0.013 1.528,0.017 2.359,-0.376 2.881,-1.943 C -1.368,23.698 0.816,14.294 0.935,4.501 0.953,3 0.688,1.497 0.554,-0.006 0.37,-0.004 0.185,-0.002 0,0"
             style="fill:#000000;fill-opacity:1;fill-rule:evenodd;stroke:none"
             id="path66" /></g><g
           id="g68"
           transform="translate(775.0537,204.7412)"><path
             d="m 0,0 c -1.436,-0.749 -2.195,-1.241 -3.021,-1.56 -4.325,-1.664 -6.225,-4.794 -6.178,-9.408 0.094,-9.434 0.027,-18.87 0.028,-28.303 10e-4,-4.993 2.01,-7.792 6.779,-9.494 1.308,-0.466 2.598,-0.981 3.896,-1.473 -0.076,-0.257 -0.152,-0.514 -0.228,-0.771 h -33.961 c -0.069,0.183 -0.139,0.366 -0.208,0.55 0.664,0.489 1.278,1.078 2.002,1.451 2.571,1.323 4.25,3.487 4.299,6.246 0.174,9.912 0.068,19.83 -0.278,29.975 -0.442,-0.848 -0.933,-1.675 -1.321,-2.548 -4.334,-9.727 -8.586,-19.493 -13.02,-29.176 -1.129,-2.465 -2.822,-4.672 -4.256,-6.997 l -0.905,0.296 c -5.866,13.174 -11.732,26.348 -17.598,39.523 -0.253,-0.05 -0.506,-0.099 -0.759,-0.149 v -3.458 c 0,-7.848 0.07,-15.696 -0.027,-23.543 -0.057,-4.634 0.889,-8.594 5.575,-10.715 0.389,-0.175 0.601,-0.746 1.138,-1.453 h -22.184 c -0.057,0.218 -0.114,0.435 -0.171,0.653 1.06,0.453 2.096,0.979 3.186,1.345 5.7,1.916 7.649,4.561 7.652,10.496 0.003,8.818 -0.119,17.637 0.045,26.452 0.099,5.312 -1.774,9.047 -6.991,10.794 -0.617,0.207 -1.143,0.687 -2.377,1.454 1.359,0.212 1.976,0.393 2.593,0.395 7.583,0.019 15.167,-0.042 22.749,0.054 1.718,0.021 2.435,-0.657 3.079,-2.14 3.679,-8.467 7.465,-16.888 11.5,-25.965 0.65,1.294 1.077,2.066 1.435,2.867 3.44,7.718 6.831,15.458 10.349,23.141 0.388,0.849 1.466,1.948 2.242,1.963 7.668,0.144 15.341,0.089 23.012,0.066 C -1.546,0.567 -1.169,0.354 0,0"
             style="fill:#000000;fill-opacity:1;fill-rule:evenodd;stroke:none"
             id="path70" /></g><g
           id="g72"
           transform="translate(844.5127,177.6562)"><path
             d="M 0,0 C 1.252,0 2.235,-0.196 3.106,0.032 8.317,1.397 12.487,6.599 12.105,12.951 11.784,18.32 7.819,23.013 2.427,24.271 0.331,24.76 -0.032,24.017 -0.015,22.233 0.032,17.402 0,12.571 0,7.74 0,5.218 0,2.694 0,0 m 0.583,-3.69 c 0,-3.947 -0.353,-7.663 0.1,-11.279 0.443,-3.544 3.189,-5.515 6.465,-6.664 1.357,-0.474 2.702,-0.985 4.052,-1.48 -0.056,-0.251 -0.113,-0.502 -0.169,-0.754 h -38.136 c -0.082,0.139 -0.166,0.278 -0.249,0.417 0.647,0.385 1.261,0.846 1.948,1.137 1.134,0.479 2.367,0.74 3.465,1.282 3.449,1.705 5.352,4.383 5.326,8.387 -0.059,9.611 -0.05,19.222 -0.005,28.833 0.022,4.59 -1.959,7.725 -6.284,9.369 -0.816,0.31 -1.554,0.82 -2.328,1.238 0.061,0.233 0.123,0.466 0.185,0.698 0.818,0.062 1.636,0.176 2.455,0.177 9.611,0.013 19.221,0.002 28.833,0.01 5.667,0.005 11.04,-1.132 15.878,-4.199 C 31.962,17.243 31.928,6.659 22.053,0.519 17.115,-2.552 11.654,-3.686 5.908,-3.69 c -1.739,-0.002 -3.478,0 -5.325,0"
             style="fill:#000000;fill-opacity:1;fill-rule:evenodd;stroke:none"
             id="path74" /></g><g
           id="g76"
           transform="translate(947.0283,195.3574)"><path
             d="M 0,0 C -0.244,-0.011 -0.487,-0.021 -0.731,-0.031 -3.639,-6.58 -6.545,-13.128 -9.584,-19.977 H 8.874 C 5.816,-13.092 2.908,-6.546 0,0 m -4.942,11.313 c 5.319,0 10.41,0.09 15.49,-0.1 0.752,-0.028 1.736,-1.258 2.136,-2.147 6.198,-13.801 12.381,-27.61 18.412,-41.485 1.667,-3.836 4.096,-6.479 8.217,-7.492 0.822,-0.201 1.56,-0.74 2.337,-1.125 -0.068,-0.208 -0.136,-0.417 -0.205,-0.626 H 7.953 l -0.287,0.618 c 0.901,0.43 1.769,0.954 2.707,1.272 4.688,1.584 5.499,3.354 3.561,7.934 -2.991,7.066 -2.991,7.066 -10.666,7.066 -4.319,0 -8.64,0.088 -12.952,-0.075 -0.875,-0.034 -2.069,-0.827 -2.5,-1.609 -1.141,-2.068 -2.061,-4.281 -2.857,-6.513 -1.248,-3.5 -0.309,-5.27 3.17,-6.511 1.197,-0.427 2.369,-0.921 3.553,-1.384 -0.043,-0.227 -0.086,-0.452 -0.129,-0.679 h -22.128 c -0.061,0.169 -0.12,0.337 -0.181,0.506 0.879,0.416 1.718,0.985 2.643,1.22 3.809,0.961 6.212,3.345 7.77,6.901 5.259,12.001 10.565,23.983 15.99,35.91 1.032,2.267 1.449,4.236 0.01,6.398 -0.311,0.467 -0.358,1.111 -0.599,1.921"
             style="fill:#000000;fill-opacity:1;fill-rule:evenodd;stroke:none"
             id="path78" /></g><g
           id="g80"
           transform="translate(1181.8535,153.6738)"><path
             d="m 0,0 h -38.056 c -0.075,0.203 -0.149,0.406 -0.222,0.609 0.841,0.416 1.65,0.932 2.532,1.232 6.601,2.239 8.169,4.404 8.169,11.415 0.001,9.875 0,19.749 0,29.623 v 3.69 c -4.293,-0.505 -8.402,-0.647 -12.339,-1.542 -4.412,-1.003 -5.013,-5.991 -7.477,-9.06 -0.219,0.132 -0.439,0.264 -0.658,0.397 V 51.445 H 9.914 V 36.402 C 9.691,36.26 9.468,36.118 9.245,35.976 c -2.394,3.127 -3.139,7.999 -7.471,9.045 -3.853,0.928 -7.9,1.054 -12.304,1.588 v -3.542 c 0,-10.315 -0.003,-20.63 0.002,-30.946 0.002,-5.304 2.031,-8.122 7.05,-9.873 C -2.211,1.807 -0.968,1.3 0.286,0.822 0.19,0.548 0.096,0.274 0,0"
             style="fill:#000000;fill-opacity:1;fill-rule:evenodd;stroke:none"
             id="path82" /></g><g
           id="g84"
           transform="translate(1084.6934,188.0029)"><path
             d="m 0,0 c -0.609,1.039 -1.187,2.096 -1.831,3.112 -4.131,6.524 -9.868,10.015 -17.754,8.898 -7.496,-1.063 -11.75,-5.958 -13.953,-12.81 -3.855,-11.988 2.024,-23.642 13.352,-26.734 8.123,-2.217 16.108,0.754 20.817,7.739 0.414,0.614 0.866,1.203 1.301,1.805 0.204,-0.096 0.408,-0.192 0.612,-0.286 -0.477,-1.246 -0.825,-2.56 -1.45,-3.726 -3.752,-7.001 -9.975,-10.53 -17.503,-11.875 -10.317,-1.843 -19.85,0.036 -28.006,6.946 -11.996,10.163 -11.859,27.39 0.4,37.22 9.609,7.707 20.507,8.71 31.981,5.164 3.282,-1.015 6.369,-2.574 9.969,-1.373 0.536,0.18 1.977,-0.555 2.019,-0.965 C 0.391,8.804 0.627,4.473 0.919,0.146 0.612,0.098 0.306,0.049 0,0"
             style="fill:#000000;fill-opacity:1;fill-rule:evenodd;stroke:none"
             id="path86" /></g><g
           id="g88"
           transform="translate(615.7944,205.1787)"><path
             d="m 0,0 h 38.369 c 0.086,-0.171 0.171,-0.342 0.256,-0.513 -0.725,-0.412 -1.408,-0.947 -2.183,-1.218 -7.136,-2.498 -8.524,-4.423 -8.523,-11.97 0,-8.46 0,-16.92 -0.001,-25.379 0,-5.761 1.976,-8.465 7.513,-10.315 0.916,-0.306 1.82,-0.653 2.707,-1.035 0.198,-0.086 0.3,-0.394 0.702,-0.958 H 0.431 c -0.084,0.155 -0.169,0.308 -0.253,0.462 0.822,0.417 1.607,0.941 2.47,1.234 6.615,2.251 8.236,4.464 8.236,11.379 0,8.724 0.003,17.448 -0.001,26.172 -0.003,5.494 -1.96,8.188 -7.209,9.985 -0.996,0.34 -1.983,0.712 -2.953,1.12 C 0.531,-0.957 0.438,-0.647 0,0"
             style="fill:#000000;fill-opacity:1;fill-rule:evenodd;stroke:none"
             id="path90" /></g><g
           id="g92"
           transform="translate(1125.4844,319.1943)"><path
             d="m 0,0 v -27.561 c -12.278,0.773 -24.426,1.536 -37.495,2.357 1.676,2.045 2.864,3.943 4.486,5.336 1.36,1.167 3.148,2 4.883,2.533 5.965,1.831 8.085,5.363 7.581,12.414 -0.368,5.16 -0.008,5.985 5.251,6.006 C -10.235,1.104 -5.173,0.397 0,0"
             style="fill:#000000;fill-opacity:1;fill-rule:evenodd;stroke:none"
             id="path94" /></g><g
           id="g96"
           transform="translate(1197.2441,265.0674)"><path
             d="m 0,0 c -10.25,6.335 -20.87,11.752 -31.967,16.253 -0.607,0.246 -1.298,1.217 -1.307,1.859 -0.097,6.495 -0.059,12.992 -0.059,20.006 C -18.129,28.611 -7.383,15.806 0,0"
             style="fill:#000000;fill-opacity:1;fill-rule:evenodd;stroke:none"
             id="path98" /></g><g
           id="g100"
           transform="translate(844.5127,177.6562)"><path
             d="m 0,0 c 0,2.694 0,5.218 0,7.74 0,4.831 0.032,9.662 -0.015,14.493 -0.017,1.784 0.346,2.527 2.442,2.038 5.392,-1.258 9.357,-5.951 9.678,-11.32 C 12.487,6.599 8.317,1.397 3.106,0.032 2.235,-0.196 1.252,0 0,0"
             style="fill:#ffffff;fill-opacity:1;fill-rule:evenodd;stroke:none"
             id="path102" /></g><g
           id="g104"
           transform="translate(947.0283,195.3574)"><path
             d="M 0,0 C 2.908,-6.546 5.816,-13.092 8.874,-19.977 H -9.584 c 3.039,6.849 5.945,13.397 8.853,19.946 0.244,0.01 0.487,0.02 0.731,0.031"
             style="fill:#ffffff;fill-opacity:1;fill-rule:evenodd;stroke:none"
             id="path106" /></g></g></g></g></svg>
