<?xml version="1.0" encoding="UTF-8" standalone="no"?>
<svg
   xmlns:dc="http://purl.org/dc/elements/1.1/"
   xmlns:cc="http://creativecommons.org/ns#"
   xmlns:rdf="http://www.w3.org/1999/02/22-rdf-syntax-ns#"
   xmlns:svg="http://www.w3.org/2000/svg"
   xmlns="http://www.w3.org/2000/svg"
   xmlns:sodipodi="http://sodipodi.sourceforge.net/DTD/sodipodi-0.dtd"
   xmlns:inkscape="http://www.inkscape.org/namespaces/inkscape"
   version="1.1"
   id="svg2"
   xml:space="preserve"
   width="377.56"
   height="142.16"
   viewBox="0 0 377.56 142.16"
   sodipodi:docname="league-of-legends-seeklogo.com.eps"><metadata
     id="metadata8"><rdf:RDF><cc:Work
         rdf:about=""><dc:format>image/svg+xml</dc:format><dc:type
           rdf:resource="http://purl.org/dc/dcmitype/StillImage" /></cc:Work></rdf:RDF></metadata><defs
     id="defs6" /><sodipodi:namedview
     pagecolor="#ffffff"
     bordercolor="#666666"
     borderopacity="1"
     objecttolerance="10"
     gridtolerance="10"
     guidetolerance="10"
     inkscape:pageopacity="0"
     inkscape:pageshadow="2"
     inkscape:window-width="640"
     inkscape:window-height="480"
     id="namedview4" /><g
     id="g10"
     inkscape:groupmode="layer"
     inkscape:label="ink_ext_XXXXXX"
     transform="matrix(1.3333333,0,0,-1.3333333,0,142.16)"><g
       id="g12"
       transform="scale(0.1)"><path
         d="M 1989.62,490.844 V 8.48828 H 1882.93 L 1652.42,321.918 V 8.48828 H 1550.2 V 445.746 l -23.36,45.098 h 132.15 l 228.42,-317.793 v 317.793 h 102.21"
         style="fill:#c29739;fill-opacity:1;fill-rule:nonzero;stroke:none"
         id="path14" /><path
         d="m 927.242,0.148438 c 35.196,-0.1992193 67.676,5.750002 97.498,17.703162 29.87,11.9765 55.6,28.6172 77.32,49.8164 21.69,21.2109 38.7,46.348 51.04,75.383 8.89,20.898 14.61,42.929 17.21,66.152 1.03,9.012 2.75,45.379 0.89,67.324 H 928.246 l -43.258,-86.964 h 173.342 c -6.68,-27.442 -21.82,-50.098 -45.33,-67.137 -23.566,-17.09 -51.734,-25.5393 -84.547,-25.4104 -21.109,0.1367 -40.816,4.2464 -59.066,12.3514 -18.266,8.117 -34.133,19.043 -47.657,32.863 -13.546,13.836 -24.117,30.028 -31.75,48.633 -7.667,18.602 -11.421,38.446 -11.304,59.532 0.109,21.062 4.082,40.918 11.898,59.421 7.832,18.508 18.586,34.629 32.281,48.321 13.688,13.711 29.567,24.367 47.665,32.082 18.093,7.676 37.683,11.445 58.812,11.406 28.617,-0.176 53.891,-6.465 75.888,-18.945 21.98,-12.492 38.99,-30.43 51.07,-53.887 l 95.93,44.863 c -19.99,39.063 -49.48,69.707 -88.54,91.895 -39.05,22.207 -83.43,33.387 -133.129,33.691 -35.196,0.184 -68.524,-6.191 -99.981,-19.121 -31.488,-12.922 -58.91,-30.598 -82.23,-53.215 -23.301,-22.558 -41.875,-48.965 -55.613,-79.129 -13.786,-30.148 -20.723,-62.461 -20.918,-96.777 -0.204,-34.395 6.351,-66.758 19.543,-97.102 13.257,-30.32 31.253,-56.8824 54.132,-79.6363 22.844,-22.8008 49.844,-40.832 80.961,-54.0625 31.059,-13.17967 64.7,-19.859356 100.797,-20.050762"
         style="fill:#c29739;fill-opacity:1;fill-rule:nonzero;stroke:none"
         id="path16" /><path
         d="M 130.133,490.883 H 0 L 24.5547,440.98 V 58.2695 L 0,8.42188 h 298.668 l 27.09,94.41412 H 130.133 v 388.047"
         style="fill:#c29739;fill-opacity:1;fill-rule:nonzero;stroke:none"
         id="path18" /><path
         d="M 361.793,8.42188 H 652.93 V 102.785 H 467.781 v 105.813 h 143.141 l 25.933,90.722 H 467.781 v 97.578 H 652.93 v 93.985 H 361.793 V 8.42188"
         style="fill:#c29739;fill-opacity:1;fill-rule:nonzero;stroke:none"
         id="path20" /><path
         d="m 1208.18,8.42188 h 291.13 V 102.785 h -185.17 v 105.813 h 143.2 l 25.88,90.722 h -169.08 v 97.578 h 185.17 v 93.985 H 1208.18 V 8.42188"
         style="fill:#c29739;fill-opacity:1;fill-rule:nonzero;stroke:none"
         id="path22" /><path
         d="m 1394.66,567.02 c 35.19,-0.196 67.7,5.742 97.55,17.73 29.85,11.98 55.56,28.602 77.27,49.809 21.72,21.164 38.71,46.332 51.07,75.355 8.88,20.879 14.62,42.953 17.21,66.152 0.99,9.008 2.78,45.387 0.87,67.344 H 1395.7 l -43.26,-86.937 h 173.34 c -6.7,-27.465 -21.83,-50.082 -45.34,-67.16 -23.57,-17.071 -51.75,-25.497 -84.56,-25.344 -21.11,0.105 -40.78,4.203 -59.05,12.308 -18.26,8.106 -34.16,19.078 -47.66,32.875 -13.54,13.805 -24.1,30.028 -31.78,48.618 -7.63,18.601 -11.38,38.453 -11.28,59.543 0.13,21.074 4.09,40.894 11.91,59.398 7.83,18.535 18.59,34.648 32.28,48.344 13.66,13.703 29.53,24.343 47.66,32.05 18.08,7.704 37.67,11.485 58.82,11.426 28.62,-0.156 53.89,-6.457 75.87,-18.949 22.01,-12.477 39,-30.418 51.05,-53.875 l 95.95,44.906 c -19.99,39.02 -49.46,69.637 -88.53,91.847 -39.06,22.2 -83.44,33.43 -133.12,33.7 -35.19,0.19 -68.53,-6.21 -100,-19.11 -31.5,-12.89 -58.9,-30.62 -82.21,-53.234 -23.32,-22.55 -41.9,-48.949 -55.65,-79.125 -13.77,-30.175 -20.69,-62.457 -20.89,-96.812 -0.2,-34.359 6.34,-66.734 19.53,-97.039 13.24,-30.332 31.28,-56.871 54.12,-79.684 22.84,-22.769 49.87,-40.801 80.98,-54.011 31.05,-13.286 64.67,-19.969 100.78,-20.125"
         style="fill:#c29739;fill-opacity:1;fill-rule:nonzero;stroke:none"
         id="path24" /><path
         d="M 130.133,1057.69 H 0 l 24.5547,-49.87 V 625.121 L 0,575.266 h 298.668 l 27.09,94.449 H 130.133 v 387.975"
         style="fill:#c29739;fill-opacity:1;fill-rule:nonzero;stroke:none"
         id="path26" /><path
         d="M 361.793,575.266 H 652.93 v 94.398 H 467.781 v 105.793 h 143.141 l 25.933,90.703 H 467.781 v 97.574 H 652.93 v 93.956 H 361.793 V 575.266"
         style="fill:#c29739;fill-opacity:1;fill-rule:nonzero;stroke:none"
         id="path28" /><path
         d="m 2117.63,575.266 h 291.08 v 94.398 h -185.09 v 105.793 h 143.13 l 25.88,90.703 h -169.01 v 97.574 h 185.09 v 93.956 H 2117.63 V 575.266"
         style="fill:#c29739;fill-opacity:1;fill-rule:nonzero;stroke:none"
         id="path30" /><path
         d="M 979.281,1057.69 H 828.754 L 860.59,996.184 686.73,575.25 h 108.293 l 36.907,94.113 h 195.84 l 37.94,-94.113 h 110.4 z M 868.113,761.625 931.684,923.727 992.75,761.625 Z"
         style="fill:#c29739;fill-opacity:1;fill-rule:nonzero;stroke:none"
         id="path32" /><path
         d="M 2685.31,925.055 V 708.098 h 54.53 v 73.34 h 56.32 l 13.61,47.707 h -69.93 v 46.757 h 79.98 v 49.153 h -134.51"
         style="fill:#c29739;fill-opacity:1;fill-rule:nonzero;stroke:none"
         id="path34" /><path
         d="m 2550.51,929.348 c -63.56,0 -115.23,-50.586 -115.23,-112.801 0,-62.195 51.67,-112.781 115.23,-112.781 63.53,0 115.17,50.586 115.17,112.781 0,62.215 -51.69,112.801 -115.17,112.801 z m 0,-173.239 c -34,0 -61.64,27.137 -61.64,60.438 0,33.336 27.64,60.457 61.64,60.457 33.97,0 61.63,-27.121 61.63,-60.457 0,-33.301 -27.66,-60.438 -61.63,-60.438"
         style="fill:#c29739;fill-opacity:1;fill-rule:nonzero;stroke:none"
         id="path36" /><path
         d="m 1873.48,566.91 c -30.99,0 -58.69,4.719 -83.09,14.129 -24.41,9.391 -45.09,22.824 -61.99,40.266 -16.91,17.437 -29.91,38.543 -39.05,63.355 -9.16,24.75 -13.75,52.301 -13.75,82.578 v 290.452 h 107.03 V 772.723 c 0,-32.602 7.76,-58.285 23.23,-77.114 15.52,-18.843 38.08,-28.218 67.62,-28.218 29.63,0 52.15,9.375 67.63,28.218 15.51,18.829 23.29,44.512 23.29,77.114 v 284.967 h 107.01 V 767.223 c 0,-30.313 -4.59,-57.825 -13.74,-82.606 -9.14,-24.769 -22.19,-45.875 -39.05,-63.359 -16.9,-17.442 -37.59,-30.828 -62,-40.27 -24.44,-9.359 -52.14,-14.078 -83.14,-14.078"
         style="fill:#c29739;fill-opacity:1;fill-rule:nonzero;stroke:none"
         id="path38" /><path
         d="m 2692.9,294.516 -66.66,12.527 c -29.96,5.625 -46.46,22.051 -46.46,46.301 0,33.015 34.62,52.754 68.13,52.754 11.4,0 68.14,-2.871 79.85,-58.184 l 91.8,43.77 c -13.52,39.375 -54.1,107.605 -172.3,107.605 -95.38,0 -172.96,-68.496 -172.96,-152.598 0,-71.289 48.8,-123.632 130.55,-139.921 l 66.69,-13.125 c 32.93,-6.465 52.57,-24.754 52.57,-48.946 0,-31.308 -27.14,-50.3201 -70.79,-50.8006 -53.02,-0.5156 -95.83,37.9806 -102.43,75.8596 l -88.26,-48.113 C 2482.87,57.2188 2545.26,0 2652.63,0 c 67.58,0 109.33,25.5781 132.42,46.9883 29.62,27.3984 46.61,65.2027 46.61,103.6097 -0.1,72.558 -53.23,127.707 -138.76,143.918"
         style="fill:#c29739;fill-opacity:1;fill-rule:nonzero;stroke:none"
         id="path40" /><path
         d="m 2433.32,343.578 c -13.12,29.356 -31.03,54.785 -53.69,76.336 -22.76,21.543 -49.33,38.488 -79.82,50.891 -30.46,12.449 -73.81,20.156 -97,20.156 H 2035.88 V 8.53906 h 166.62 c 34.24,0 66.58,6.07034 97.06,18.39064 30.48,12.3516 57.09,29.2891 79.85,50.7969 22.75,21.5429 40.74,46.9144 53.84,76.2424 13.19,29.316 19.71,60.867 19.76,94.765 -0.05,33.907 -6.55,65.547 -19.69,94.844 z m -99.91,-151.113 c -7.54,-17.422 -17.72,-32.512 -30.6,-45.332 -12.92,-12.824 -28.26,-22.981 -46.13,-30.52 -17.8,-7.547 -36.8,-11.328 -56.9,-11.328 h -58.39 v 287.238 h 58.55 c 20.17,0 39.1,-3.828 56.95,-11.398 17.8,-7.539 33.13,-17.734 46.05,-30.574 12.92,-12.871 23.05,-28.028 30.57,-45.715 7.5,-17.645 11.28,-36.348 11.23,-56.004 -0.05,-20.207 -3.83,-38.945 -11.33,-56.367"
         style="fill:#c29739;fill-opacity:1;fill-rule:nonzero;stroke:none"
         id="path42" /></g></g></svg>
